

<svg height="864pt" version="1.1" viewBox="0 0 1296 864" width="1296pt" xmlns="http://www.w3.org/2000/svg" xmlns:xlink="http://www.w3.org/1999/xlink">

<link xmlns="http://www.w3.org/1999/xhtml" rel="stylesheet" href="styles.css" type="text/css"/>
<path class='path' fill="#FFFFFF" stroke="#000000" stroke-linecap="square" stroke-width="5" d="M 58.909091 444.272727 
L 59.154545 440.810165 
L 59.645455 438.305607 
L 60.381818 435.898446 
L 61.240909 433.830807 
L 62.345455 431.747328 
L 63.695455 429.710527 
L 65.168182 427.899327 
L 66.763636 426.275703 
L 68.604545 424.729011 
L 70.568182 423.382036 
L 72.654545 422.230964 
L 74.740909 421.326009 
L 76.95 420.604812 
L 79.281818 420.084555 
L 81.613636 419.796404 
L 83.945455 419.732182 
L 86.277273 419.89012 
L 88.609091 420.274602 
L 90.818182 420.857856 
L 93.027273 421.670908 
L 95.113636 422.673076 
L 97.077273 423.854582 
L 98.918182 425.210847 
L 100.636364 426.743767 
L 102.231818 428.464711 
L 103.704545 430.401288 
L 104.931818 432.38971 
L 105.913636 434.369769 
L 106.772727 436.608412 
L 107.386364 438.818608 
L 107.754545 440.810165 
L 107.877273 441.821252 
L 108.245455 449.175678 
L 108.736364 452.743577 
L 109.472727 456.206969 
L 110.454545 459.601359 
L 111.681818 462.925658 
L 113.154545 466.17052 
L 114.627273 468.905164 
L 116.345455 471.653839 
L 118.309091 474.3707 
L 120.518182 477.019528 
L 122.727273 479.330649 
L 125.181818 481.578588 
L 127.881818 483.728353 
L 130.581818 485.590828 
L 133.527273 487.338635 
L 136.472727 488.823911 
L 139.418182 490.072204 
L 142.609091 491.178956 
L 145.8 492.04754 
L 148.990909 492.690775 
L 152.181818 493.117565 
L 155.372727 493.333559 
L 158.563636 493.34154 
L 161.754545 493.141612 
L 164.945455 492.731199 
L 168.136364 492.104885 
L 171.327273 491.254035 
L 174.518182 490.166164 
L 177.463636 488.936687 
L 180.409091 487.47203 
L 183.354545 485.747283 
L 186.054545 483.908887 
L 188.754545 481.787144 
L 191.209091 479.569569 
L 193.418182 477.29161 
L 195.627273 474.684337 
L 197.590909 472.015607 
L 199.309091 469.323525 
L 200.781818 466.656244 
L 202.254545 463.512356 
L 203.481818 460.328907 
L 204.463636 457.146812 
L 205.2 454.041695 
L 205.690909 451.197852 
L 205.936364 449.175678 
L 206.55 436.918301 
L 207.286364 431.566453 
L 208.022727 427.910369 
L 209.127273 423.654545 
L 210.231818 420.188458 
L 211.704545 416.293331 
L 213.545455 412.175381 
L 215.386364 408.623676 
L 217.595455 404.894481 
L 219.804545 401.60333 
L 222.381818 398.192599 
L 224.959091 395.152526 
L 227.904545 392.04928 
L 230.85 389.277898 
L 233.795455 386.790359 
L 237.109091 384.287332 
L 240.422727 382.060894 
L 243.736364 380.082257 
L 247.418182 378.147437 
L 251.1 376.46727 
L 254.781818 375.023218 
L 258.463636 373.800765 
L 262.513636 372.698523 
L 266.563636 371.839095 
L 270.613636 371.213913 
L 274.663636 370.816994 
L 278.713636 370.644648 
L 282.763636 370.695296 
L 286.813636 370.969401 
L 290.863636 371.469486 
L 294.913636 372.200255 
L 298.963636 373.16882 
L 303.013636 374.385068 
L 306.695455 375.716719 
L 310.377273 377.276787 
L 314.059091 379.081668 
L 317.740909 381.15236 
L 321.054545 383.265544 
L 324.368182 385.641579 
L 327.681818 388.313936 
L 330.627273 390.974038 
L 333.572727 393.946165 
L 336.15 396.848679 
L 338.727273 400.090909 
L 340.936364 403.201059 
L 343.145455 406.69653 
L 344.986364 409.988297 
L 346.827273 413.742483 
L 348.3 417.206981 
L 349.772727 421.27978 
L 350.877273 424.9616 
L 351.981818 429.619276 
L 352.718182 433.88504 
L 353.086364 436.918301 
L 353.454545 444.272727 
L 353.454545 444.272727 
L 352.963636 454.078629 
L 352.472727 458.122977 
L 351.490909 463.810662 
L 350.509091 468.14121 
L 349.036364 473.394024 
L 347.563636 477.769854 
L 345.6 482.751984 
L 343.636364 487.06919 
L 341.672727 490.906507 
L 339.218182 495.192567 
L 336.763636 499.034951 
L 333.818182 503.181818 
L 330.872727 506.917036 
L 327.927273 510.310493 
L 324.490909 513.90399 
L 321.054545 517.15909 
L 317.618182 520.119373 
L 313.690909 523.183978 
L 309.763636 525.945307 
L 305.836364 528.433217 
L 301.909091 530.671333 
L 297.490909 532.914109 
L 293.072727 534.886354 
L 288.654545 536.605406 
L 284.236364 538.085185 
L 279.818182 539.336864 
L 275.4 540.369357 
L 270.981818 541.18967 
L 266.563636 541.803157 
L 262.145455 542.213705 
L 257.236364 542.434907 
L 252.327273 542.410354 
L 247.418182 542.139859 
L 243 541.68448 
L 238.581818 541.025417 
L 234.163636 540.15847 
L 229.745455 539.077937 
L 225.327273 537.776413 
L 220.909091 536.244516 
L 216.490909 534.47051 
L 212.072727 532.439781 
L 208.145455 530.404542 
L 204.218182 528.136324 
L 200.290909 525.615638 
L 196.363636 522.818182 
L 192.927273 520.119373 
L 189.490909 517.15909 
L 186.054545 513.90399 
L 182.618182 510.310493 
L 179.672727 506.917036 
L 176.727273 503.181818 
L 173.781818 499.034951 
L 171.327273 495.192567 
L 168.872727 490.906507 
L 166.909091 487.06919 
L 164.945455 482.751984 
L 163.472727 479.092685 
L 162 474.92999 
L 160.527273 470.020897 
L 159.545455 466.089204 
L 158.563636 461.214426 
L 158.072727 458.122977 
L 157.581818 454.078629 
L 157.090909 444.272727 
L 157.090909 444.272727 
L 157.704545 432.015351 
L 158.318182 426.959915 
L 159.545455 419.850308 
L 160.772727 414.437124 
L 162 409.909091 
L 163.840909 404.132278 
L 165.681818 399.16315 
L 167.522727 394.757938 
L 169.977273 389.528247 
L 172.431818 384.857642 
L 174.886364 380.622928 
L 177.954545 375.819948 
L 181.022727 371.461728 
L 184.090909 367.472514 
L 187.772727 363.096267 
L 191.454545 359.103183 
L 195.136364 355.441578 
L 198.818182 352.071949 
L 203.113636 348.468781 
L 207.409091 345.182329 
L 211.704545 342.182003 
L 216 339.443232 
L 220.295455 336.945991 
L 225.204545 334.366703 
L 230.113636 332.061134 
L 235.022727 330.012714 
L 239.931818 328.207825 
L 244.840909 326.635259 
L 249.75 325.285804 
L 254.659091 324.15194 
L 259.568182 323.227608 
L 264.477273 322.508036 
L 269.386364 321.989611 
L 274.909091 321.643676 
L 280.431818 321.546989 
L 285.954545 321.69896 
L 291.477273 322.100517 
L 296.386364 322.668949 
L 301.295455 323.439329 
L 306.204545 324.415549 
L 311.113636 325.602689 
L 316.022727 327.007155 
L 320.931818 328.636866 
L 325.840909 330.5015 
L 330.75 332.612827 
L 335.659091 334.985142 
L 339.954545 337.288611 
L 344.25 339.819272 
L 348.545455 342.594089 
L 352.840909 345.633664 
L 357.136364 348.963325 
L 360.818182 352.071949 
L 364.5 355.441578 
L 368.181818 359.103183 
L 371.863636 363.096267 
L 374.931818 366.713849 
L 378 370.636364 
L 381.068182 374.915529 
L 384.136364 379.622125 
L 386.590909 383.761834 
L 389.045455 388.313936 
L 391.5 393.388988 
L 393.340909 397.640401 
L 395.181818 402.401318 
L 397.022727 407.871106 
L 398.25 412.087515 
L 399.477273 417.002131 
L 400.704545 423.095604 
L 401.318182 426.959915 
L 401.931818 432.015351 
L 403.281818 458.981579 
L 404.018182 465.048102 
L 404.754545 469.685275 
L 406.227273 476.997443 
L 407.7 482.894982 
L 409.172727 487.954672 
L 411.381818 494.518418 
L 413.590909 500.231519 
L 415.8 505.333215 
L 418.009091 509.966104 
L 420.954545 515.57083 
L 423.9 520.652487 
L 426.845455 525.309537 
L 429.790909 529.611523 
L 433.472727 534.566644 
L 437.154545 539.120823 
L 440.836364 543.329375 
L 444.518182 547.234692 
L 448.936364 551.567252 
L 453.354545 555.556253 
L 457.772727 559.237463 
L 462.190909 562.639603 
L 466.609091 565.786115 
L 471.763636 569.159653 
L 476.918182 572.236965 
L 482.072727 575.038968 
L 487.227273 577.583021 
L 492.381818 579.883643 
L 497.536364 581.953037 
L 502.690909 583.801493 
L 507.845455 585.437689 
L 513.736364 587.057035 
L 519.627273 588.417672 
L 525.518182 589.526871 
L 531.409091 590.390356 
L 537.3 591.012467 
L 543.190909 591.396265 
L 549.081818 591.543614 
L 554.972727 591.455222 
L 560.863636 591.130666 
L 566.754545 590.568372 
L 572.645455 589.765586 
L 578.536364 588.718296 
L 584.427273 587.421136 
L 590.318182 585.867241 
L 595.472727 584.290293 
L 600.627273 582.503304 
L 605.781818 580.49801 
L 610.936364 578.264608 
L 616.090909 575.791478 
L 621.245455 573.064811 
L 626.4 570.068122 
L 631.554545 566.781597 
L 635.972727 563.715812 
L 640.390909 560.401265 
L 644.809091 556.815978 
L 649.227273 552.933156 
L 653.645455 548.719621 
L 657.327273 544.925852 
L 661.009091 540.843105 
L 664.690909 536.432983 
L 668.372727 531.645927 
L 671.318182 527.501365 
L 674.263636 523.029219 
L 677.209091 518.170038 
L 680.154545 512.841587 
L 682.363636 508.467421 
L 684.572727 503.690474 
L 686.781818 498.40422 
L 688.990909 492.441267 
L 690.463636 487.954672 
L 691.936364 482.894982 
L 693.409091 476.997443 
L 694.881818 469.685275 
L 695.618182 465.048102 
L 696.354545 458.981579 
L 697.95 427.1124 
L 698.809091 420.03479 
L 699.668182 414.624754 
L 701.386364 406.093892 
L 703.104545 399.21343 
L 704.822727 393.310458 
L 706.540909 388.076098 
L 709.118182 381.119319 
L 711.695455 374.952022 
L 714.272727 369.378918 
L 716.85 364.275724 
L 720.286364 358.059199 
L 723.722727 352.390153 
L 727.159091 347.17265 
L 730.595455 342.337328 
L 734.031818 337.832092 
L 738.327273 332.604127 
L 742.622727 327.76847 
L 746.918182 323.278076 
L 751.213636 319.095782 
L 755.509091 315.191638 
L 760.663636 310.839564 
L 765.818182 306.818182 
L 770.972727 303.09923 
L 776.127273 299.659374 
L 781.281818 296.479126 
L 786.436364 293.542051 
L 791.590909 290.834185 
L 797.604545 287.948867 
L 803.618182 285.343231 
L 809.631818 283.003721 
L 815.645455 280.918901 
L 821.659091 279.079128 
L 827.672727 277.476295 
L 833.686364 276.103625 
L 839.7 274.95552 
L 845.713636 274.027438 
L 851.727273 273.315795 
L 857.740909 272.817896 
L 863.754545 272.531881 
L 869.768182 272.456693 
L 875.781818 272.592055 
L 881.795455 272.938466 
L 887.809091 273.497209 
L 893.822727 274.270379 
L 899.836364 275.260919 
L 905.85 276.472677 
L 911.863636 277.910488 
L 917.877273 279.580272 
L 923.890909 281.489168 
L 929.904545 283.645699 
L 935.918182 286.059993 
L 941.931818 288.744052 
L 947.086364 291.270108 
L 952.240909 294.015296 
L 957.395455 296.99187 
L 962.55 300.214171 
L 967.704545 303.699096 
L 972.859091 307.466715 
L 978.013636 311.541097 
L 982.309091 315.191638 
L 986.604545 319.095782 
L 990.9 323.278076 
L 995.195455 327.76847 
L 999.490909 332.604127 
L 1003.786364 337.832092 
L 1007.222727 342.337328 
L 1010.659091 347.17265 
L 1014.095455 352.390153 
L 1017.531818 358.059199 
L 1020.109091 362.663613 
L 1022.686364 367.630454 
L 1025.263636 373.035492 
L 1027.840909 378.98747 
L 1030.418182 385.652755 
L 1032.136364 390.622517 
L 1033.854545 396.163636 
L 1035.572727 402.502883 
L 1037.290909 410.081341 
L 1038.15 414.624754 
L 1039.009091 420.03479 
L 1039.868182 427.1124 
L 1040.727273 444.272727 
L 1040.727273 444.272727 
L 1039.745455 463.88453 
L 1038.763636 471.973227 
L 1037.781818 478.156125 
L 1036.8 483.348598 
L 1034.836364 492.009693 
L 1032.872727 499.254545 
L 1030.909091 505.587253 
L 1028.945455 511.266981 
L 1026.981818 516.448051 
L 1024.036364 523.49639 
L 1021.090909 529.865652 
L 1018.145455 535.697873 
L 1015.2 541.090156 
L 1012.254545 546.112407 
L 1008.327273 552.321807 
L 1004.4 558.057788 
L 1000.472727 563.388761 
L 996.545455 568.366933 
L 992.618182 573.033231 
L 987.709091 578.476894 
L 982.8 583.535252 
L 977.890909 588.248924 
L 972.981818 592.650761 
L 968.072727 596.767771 
L 963.163636 600.622456 
L 958.254545 604.23378 
L 952.363636 608.268696 
L 946.472727 611.99992 
L 940.581818 615.447314 
L 934.690909 618.627714 
L 928.8 621.555491 
L 922.909091 624.242973 
L 917.018182 626.700781 
L 911.127273 628.938086 
L 905.236364 630.962815 
L 899.345455 632.781818 
L 892.472727 634.651805 
L 885.6 636.257727 
L 878.727273 637.606165 
L 871.854545 638.702477 
L 864.981818 639.550909 
L 858.109091 640.154682 
L 851.236364 640.516054 
L 844.363636 640.636364 
L 837.490909 640.516054 
L 830.618182 640.154682 
L 823.745455 639.550909 
L 816.872727 638.702477 
L 810 637.606165 
L 803.127273 636.257727 
L 796.254545 634.651805 
L 789.381818 632.781818 
L 783.490909 630.962815 
L 777.6 628.938086 
L 771.709091 626.700781 
L 765.818182 624.242973 
L 759.927273 621.555491 
L 754.036364 618.627714 
L 748.145455 615.447314 
L 742.254545 611.99992 
L 736.363636 608.268696 
L 730.472727 604.23378 
L 725.563636 600.622456 
L 720.654545 596.767771 
L 715.745455 592.650761 
L 710.836364 588.248924 
L 705.927273 583.535252 
L 701.018182 578.476894 
L 696.109091 573.033231 
L 692.181818 568.366933 
L 688.254545 563.388761 
L 684.327273 558.057788 
L 680.4 552.321807 
L 676.472727 546.112407 
L 673.527273 541.090156 
L 670.581818 535.697873 
L 667.636364 529.865652 
L 664.690909 523.49639 
L 661.745455 516.448051 
L 659.781818 511.266981 
L 657.818182 505.587253 
L 655.854545 499.254545 
L 653.890909 492.009693 
L 651.927273 483.348598 
L 650.945455 478.156125 
L 649.963636 471.973227 
L 648.981818 463.88453 
L 648 444.272727 
L 648 444.272727 
L 649.104545 422.209449 
L 650.209091 413.109665 
L 651.313636 406.153905 
L 652.418182 400.312373 
L 654.627273 390.568641 
L 656.836364 382.418182 
L 659.045455 375.293886 
L 661.254545 368.904191 
L 663.463636 363.075488 
L 666.777273 355.146107 
L 670.090909 347.980687 
L 673.404545 341.419438 
L 676.718182 335.35312 
L 680.031818 329.703088 
L 683.345455 324.410459 
L 687.763636 317.832422 
L 692.181818 311.727273 
L 696.6 306.032344 
L 701.018182 300.698812 
L 705.436364 295.687755 
L 709.854545 290.967548 
L 715.377273 285.43694 
L 720.9 280.278412 
L 726.422727 275.45785 
L 731.945455 270.947055 
L 737.468182 266.722414 
L 742.990909 262.763945 
L 748.513636 259.054583 
L 754.036364 255.579635 
L 760.663636 251.701317 
L 767.290909 248.123367 
L 773.918182 244.829619 
L 780.545455 241.806201 
L 787.172727 239.041167 
L 793.8 236.524199 
L 800.427273 234.246379 
L 807.054545 232.2 
L 813.681818 230.37842 
L 820.309091 228.775937 
L 826.936364 227.387696 
L 833.563636 226.209605 
L 840.190909 225.238272 
L 846.818182 224.470957 
L 853.445455 223.905528 
L 860.072727 223.540434 
L 866.7 223.374682 
L 873.327273 223.407823 
L 879.954545 223.639946 
L 886.581818 224.07168 
L 893.209091 224.704204 
L 899.836364 225.539259 
L 906.463636 226.579175 
L 913.090909 227.826906 
L 919.718182 229.28607 
L 926.345455 230.961006 
L 932.972727 232.856841 
L 939.6 234.979579 
L 946.227273 237.336203 
L 952.854545 239.934803 
L 959.481818 242.784744 
L 966.109091 245.896856 
L 972.736364 249.283692 
L 979.363636 252.959843 
L 984.886364 256.256508 
L 990.409091 259.777263 
L 995.931818 263.535202 
L 1001.454545 267.545455 
L 1006.977273 271.825623 
L 1012.5 276.396352 
L 1018.022727 281.282084 
L 1023.545455 286.512081 
L 1027.963636 290.967548 
L 1032.381818 295.687755 
L 1036.8 300.698812 
L 1041.218182 306.032344 
L 1045.636364 311.727273 
L 1050.054545 317.832422 
L 1054.472727 324.410459 
L 1057.786364 329.703088 
L 1061.1 335.35312 
L 1064.413636 341.419438 
L 1067.727273 347.980687 
L 1071.040909 355.146107 
L 1073.25 360.33454 
L 1075.459091 365.927824 
L 1077.668182 372.019918 
L 1079.877273 378.74981 
L 1082.086364 386.339345 
L 1084.295455 395.185654 
L 1085.4 400.312373 
L 1086.504545 406.153905 
L 1087.609091 413.109665 
L 1088.713636 422.209449 
L 1089.818182 444.272727 
L 1089.818182 444.272727 
L 1088.590909 468.787481 
L 1087.363636 478.898352 
L 1086.136364 486.626974 
L 1084.909091 493.117565 
L 1083.681818 498.81392 
L 1081.227273 508.643153 
L 1078.772727 517.075969 
L 1076.318182 524.553626 
L 1073.863636 531.32262 
L 1071.409091 537.53738 
L 1068.954545 543.302306 
L 1065.272727 551.263883 
L 1061.590909 558.55416 
L 1057.909091 565.294513 
L 1054.227273 571.572327 
L 1050.545455 577.453025 
L 1046.863636 582.987124 
L 1041.954545 589.894726 
L 1037.045455 596.330778 
L 1032.136364 602.352887 
L 1027.227273 608.006732 
L 1022.318182 613.329267 
L 1017.409091 618.350884 
L 1012.5 623.096935 
L 1007.590909 627.588824 
L 1001.454545 632.873841 
L 995.318182 637.82029 
L 989.181818 642.453524 
L 983.045455 646.79504 
L 976.909091 650.863231 
L 970.772727 654.673953 
L 964.636364 658.240961 
L 958.5 661.576258 
L 952.363636 664.690362 
L 946.227273 667.592528 
L 938.863636 670.806795 
L 931.5 673.73991 
L 924.136364 676.402531 
L 916.772727 678.803871 
L 909.409091 680.951883 
L 902.045455 682.853409 
L 894.681818 684.514302 
L 887.318182 685.939525 
L 879.954545 687.133224 
L 872.590909 688.098802 
L 865.227273 688.838961 
L 857.863636 689.355742 
L 850.5 689.650556 
L 843.136364 689.724205 
L 835.772727 689.576886 
L 828.409091 689.208201 
L 821.045455 688.617149 
L 813.681818 687.802109 
L 806.318182 686.760824 
L 798.954545 685.490364 
L 791.590909 683.987085 
L 784.227273 682.246574 
L 776.863636 680.263583 
L 769.5 678.031941 
L 762.136364 675.54445 
L 754.772727 672.792755 
L 747.409091 669.767184 
L 740.045455 666.456549 
L 733.909091 663.470645 
L 727.772727 660.269241 
L 721.636364 656.842599 
L 715.5 653.179637 
L 709.363636 649.267688 
L 703.227273 645.0922 
L 697.090909 640.636364 
L 690.954545 635.88062 
L 684.818182 630.802033 
L 678.681818 625.373442 
L 673.772727 620.756935 
L 668.863636 615.876002 
L 663.954545 610.707381 
L 659.045455 605.223358 
L 654.136364 599.390484 
L 649.227273 593.167769 
L 644.318182 586.504053 
L 640.636364 581.178287 
L 636.954545 575.533547 
L 633.272727 569.526717 
L 629.590909 563.102898 
L 625.909091 556.190311 
L 622.227273 548.69193 
L 619.772727 543.302306 
L 617.318182 537.53738 
L 614.863636 531.32262 
L 612.409091 524.553626 
L 609.954545 517.075969 
L 607.5 508.643153 
L 605.045455 498.81392 
L 603.818182 493.117565 
L 602.590909 486.626974 
L 601.363636 478.898352 
L 600.136364 468.787481 
L 598.909091 444.272727 
L 598.909091 444.272727 
L 600.259091 417.306498 
L 601.609091 406.18454 
L 602.959091 397.683056 
L 604.309091 390.543406 
L 605.659091 384.277415 
L 608.359091 373.465259 
L 611.059091 364.189162 
L 613.759091 355.963738 
L 616.459091 348.517845 
L 619.159091 341.681609 
L 621.859091 335.340191 
L 624.559091 329.411605 
L 628.609091 321.163386 
L 632.659091 313.559539 
L 636.709091 306.493338 
L 640.759091 299.885825 
L 644.809091 293.676612 
L 648.859091 287.818269 
L 652.909091 282.272727 
L 658.309091 275.312259 
L 663.709091 268.793498 
L 669.109091 262.668873 
L 674.509091 256.89973 
L 679.909091 251.45416 
L 685.309091 246.305457 
L 690.709091 241.431016 
L 696.109091 236.811502 
L 702.859091 231.370408 
L 709.609091 226.273851 
L 716.359091 221.498183 
L 723.109091 217.023173 
L 729.859091 212.831379 
L 736.609091 208.90767 
L 743.359091 205.238844 
L 750.109091 201.813329 
L 756.859091 198.620946 
L 763.609091 195.652716 
L 770.359091 192.900697 
L 777.109091 190.35786 
L 783.859091 188.017976 
L 790.609091 185.875533 
L 798.709091 183.558401 
L 806.809091 181.511257 
L 814.909091 179.727835 
L 823.009091 178.20283 
L 831.109091 176.931821 
L 839.209091 175.911199 
L 847.309091 175.138114 
L 855.409091 174.610438 
L 863.509091 174.326733 
L 871.609091 174.286228 
L 879.709091 174.488814 
L 887.809091 174.93504 
L 895.909091 175.626119 
L 904.009091 176.563949 
L 912.109091 177.751133 
L 920.209091 179.191023 
L 928.309091 180.887762 
L 936.409091 182.846351 
L 944.509091 185.072727 
L 952.609091 187.573857 
L 959.359091 189.873833 
L 966.109091 192.375605 
L 972.859091 195.085253 
L 979.609091 198.009636 
L 986.359091 201.156505 
L 993.109091 204.53462 
L 999.859091 208.153907 
L 1006.609091 212.025639 
L 1013.359091 216.162672 
L 1020.109091 220.579723 
L 1026.859091 225.293739 
L 1033.609091 230.324346 
L 1040.359091 235.694451 
L 1045.759091 240.25293 
L 1051.159091 245.061941 
L 1056.559091 250.140099 
L 1061.959091 255.509125 
L 1067.359091 261.194609 
L 1072.759091 267.227034 
L 1078.159091 273.643194 
L 1083.559091 280.488181 
L 1087.609091 285.936661 
L 1091.659091 291.686891 
L 1095.709091 297.7744 
L 1099.759091 304.243168 
L 1103.809091 311.148762 
L 1107.859091 318.563151 
L 1111.909091 326.582456 
L 1114.609091 332.3285 
L 1117.309091 338.45477 
L 1120.009091 345.031657 
L 1122.709091 352.155628 
L 1125.409091 359.965254 
L 1128.109091 368.672727 
L 1130.809091 378.6344 
L 1132.159091 384.277415 
L 1133.509091 390.543406 
L 1134.859091 397.683056 
L 1136.209091 406.18454 
L 1137.559091 417.306498 
L 1138.909091 444.272727 
L 1138.909091 444.272727 
L 1137.436364 473.690432 
L 1135.963636 485.823477 
L 1134.490909 495.097824 
L 1133.018182 502.886533 
L 1131.545455 509.722159 
L 1130.072727 515.878175 
L 1127.127273 526.745455 
L 1124.181818 536.244516 
L 1121.236364 544.764108 
L 1118.290909 552.535713 
L 1115.345455 559.710498 
L 1112.4 566.393702 
L 1109.454545 572.662114 
L 1105.036364 581.410447 
L 1100.618182 589.498871 
L 1096.2 597.032247 
L 1091.781818 604.089085 
L 1087.363636 610.730003 
L 1082.945455 617.002982 
L 1078.527273 622.946777 
L 1074.109091 628.593239 
L 1068.218182 635.704614 
L 1062.327273 642.386023 
L 1056.436364 648.679633 
L 1050.545455 654.620256 
L 1044.654545 660.237022 
L 1038.763636 665.554595 
L 1032.872727 670.594064 
L 1026.981818 675.373624 
L 1021.090909 679.909091 
L 1015.2 684.214307 
L 1007.836364 689.290466 
L 1000.472727 694.046578 
L 993.109091 698.500606 
L 985.745455 702.668173 
L 978.381818 706.562932 
L 971.018182 710.196872 
L 963.654545 713.580551 
L 956.290909 716.723292 
L 948.927273 719.633347 
L 941.563636 722.31802 
L 934.2 724.783783 
L 926.836364 727.036364 
L 919.472727 729.080819 
L 912.109091 730.921603 
L 904.745455 732.562618 
L 897.381818 734.007256 
L 890.018182 735.258444 
L 882.654545 736.318667 
L 875.290909 737.19 
L 867.927273 737.874123 
L 859.090909 738.44977 
L 850.254545 738.759267 
L 841.418182 738.803454 
L 832.581818 738.582451 
L 823.745455 738.095659 
L 816.381818 737.486033 
L 809.018182 736.689764 
L 801.654545 735.705324 
L 794.290909 734.530797 
L 786.927273 733.163864 
L 779.563636 731.60178 
L 772.2 729.841343 
L 764.836364 727.878859 
L 757.472727 725.7101 
L 750.109091 723.330258 
L 742.745455 720.733882 
L 735.381818 717.914808 
L 728.018182 714.866075 
L 720.654545 711.579827 
L 713.290909 708.047186 
L 705.927273 704.258108 
L 698.563636 700.201203 
L 691.2 695.863517 
L 683.836364 691.230253 
L 676.472727 686.284437 
L 670.581818 682.089683 
L 664.690909 677.670962 
L 658.8 673.015294 
L 652.909091 668.107894 
L 647.018182 662.931814 
L 641.127273 657.467486 
L 635.236364 651.69213 
L 629.345455 645.578977 
L 623.454545 639.096233 
L 617.563636 632.205654 
L 613.145455 626.742388 
L 608.727273 621 
L 604.309091 614.950318 
L 599.890909 608.559399 
L 595.472727 601.785711 
L 591.054545 594.577515 
L 586.636364 586.868932 
L 582.218182 578.573827 
L 579.272727 572.662114 
L 576.327273 566.393702 
L 573.381818 559.710498 
L 570.436364 552.535713 
L 567.490909 544.764108 
L 564.545455 536.244516 
L 561.6 526.745455 
L 560.127273 521.517238 
L 558.654545 515.878175 
L 557.181818 509.722159 
L 555.709091 502.886533 
L 554.236364 495.097824 
L 552.763636 485.823477 
L 551.290909 473.690432 
L 549.818182 444.272727 
L 549.818182 444.272727 
L 551.413636 412.403548 
L 553.009091 399.259415 
L 554.604545 389.212206 
L 556.2 380.774438 
L 557.795455 373.369176 
L 559.390909 366.700159 
L 560.986364 360.591174 
L 564.177273 349.628513 
L 567.368182 339.907559 
L 570.559091 331.107866 
L 573.75 323.028679 
L 576.940909 315.534275 
L 580.131818 308.527764 
L 583.322727 301.937078 
L 586.513636 295.706865 
L 591.3 286.944405 
L 596.086364 278.783248 
L 600.872727 271.13834 
L 605.659091 263.944011 
L 610.445455 257.148285 
L 615.231818 250.709173 
L 620.018182 244.592173 
L 624.804545 238.76852 
L 631.186364 231.418521 
L 637.568182 224.499226 
L 643.95 217.971124 
L 650.331818 211.801258 
L 656.713636 205.961802 
L 663.095455 200.429016 
L 669.477273 195.182466 
L 675.859091 190.204418 
L 682.240909 185.479377 
L 688.622727 180.993721 
L 695.004545 176.735408 
L 701.386364 172.693744 
L 709.363636 167.931894 
L 717.340909 163.47726 
L 725.318182 159.315434 
L 733.295455 155.433758 
L 741.272727 151.821078 
L 749.25 148.467538 
L 757.227273 145.364414 
L 765.204545 142.503982 
L 773.181818 139.8794 
L 781.159091 137.484615 
L 789.136364 135.314283 
L 797.113636 133.363704 
L 805.090909 131.628764 
L 813.068182 130.105891 
L 821.045455 128.792014 
L 829.022727 127.684531 
L 837 126.781281 
L 844.977273 126.080527 
L 852.954545 125.580931 
L 860.931818 125.28155 
L 868.909091 125.181818 
L 876.886364 125.28155 
L 884.863636 125.580931 
L 892.840909 126.080527 
L 900.818182 126.781281 
L 908.795455 127.684531 
L 916.772727 128.792014 
L 924.75 130.105891 
L 932.727273 131.628764 
L 940.704545 133.363704 
L 948.681818 135.314283 
L 956.659091 137.484615 
L 964.636364 139.8794 
L 972.613636 142.503982 
L 980.590909 145.364414 
L 988.568182 148.467538 
L 996.545455 151.821078 
L 1004.522727 155.433758 
L 1012.5 159.315434 
L 1020.477273 163.47726 
L 1028.454545 167.931894 
L 1036.431818 172.693744 
L 1042.813636 176.735408 
L 1049.195455 180.993721 
L 1055.577273 185.479377 
L 1061.959091 190.204418 
L 1068.340909 195.182466 
L 1074.722727 200.429016 
L 1081.104545 205.961802 
L 1087.486364 211.801258 
L 1093.868182 217.971124 
L 1100.25 224.499226 
L 1106.631818 231.418521 
L 1111.418182 236.888183 
L 1116.204545 242.619643 
L 1120.990909 248.635908 
L 1125.777273 254.964129 
L 1130.563636 261.636731 
L 1135.35 268.692973 
L 1140.136364 276.181161 
L 1144.922727 284.161888 
L 1149.709091 292.712943 
L 1152.9 298.779869 
L 1156.090909 305.184225 
L 1159.281818 311.975004 
L 1162.472727 319.215142 
L 1165.663636 326.987826 
L 1168.854545 335.407064 
L 1172.045455 344.636623 
L 1175.236364 354.927273 
L 1176.831818 360.591174 
L 1178.427273 366.700159 
L 1180.022727 373.369176 
L 1181.618182 380.774438 
L 1183.213636 389.212206 
L 1184.809091 399.259415 
L 1186.404545 412.403548 
L 1188 444.272727 
L 1188 444.272727 
L 1186.281818 478.593382 
L 1184.563636 492.748602 
L 1182.845455 503.568673 
L 1181.127273 512.6555 
L 1179.409091 520.630397 
L 1177.690909 527.812416 
L 1175.972727 534.391323 
L 1172.536364 546.197265 
L 1169.1 556.665986 
L 1165.663636 566.142578 
L 1162.227273 574.843241 
L 1158.790909 582.914137 
L 1155.354545 590.459611 
L 1151.918182 597.557273 
L 1148.481818 604.266733 
L 1143.327273 613.703228 
L 1138.172727 622.492166 
L 1133.018182 630.725144 
L 1127.863636 638.472883 
L 1122.709091 645.791358 
L 1117.554545 652.725786 
L 1112.4 659.313324 
L 1107.245455 665.58495 
L 1102.090909 671.566817 
L 1096.936364 677.281242 
L 1090.063636 684.517312 
L 1083.190909 691.350618 
L 1076.318182 697.813728 
L 1069.445455 703.934287 
L 1062.572727 709.735988 
L 1055.7 715.239315 
L 1048.827273 720.462104 
L 1041.954545 725.419989 
L 1035.081818 730.126756 
L 1028.209091 734.594616 
L 1021.336364 738.834443 
L 1014.463636 742.855949 
L 1007.590909 746.667846 
L 999 751.149813 
L 990.409091 755.330078 
L 981.818182 759.220657 
L 973.227273 762.832162 
L 964.636364 766.173988 
L 956.045455 769.254453 
L 947.454545 772.080926 
L 938.863636 774.659925 
L 930.272727 776.997206 
L 921.681818 779.09783 
L 913.090909 780.966226 
L 904.5 782.606243 
L 895.909091 784.021188 
L 887.318182 785.213862 
L 878.727273 786.186592 
L 870.136364 786.941251 
L 861.545455 787.479277 
L 852.954545 787.801688 
L 844.363636 787.909091 
L 835.772727 787.801688 
L 827.181818 787.479277 
L 818.590909 786.941251 
L 810 786.186592 
L 801.409091 785.213862 
L 792.818182 784.021188 
L 784.227273 782.606243 
L 775.636364 780.966226 
L 767.045455 779.09783 
L 758.454545 776.997206 
L 749.863636 774.659925 
L 741.272727 772.080926 
L 732.681818 769.254453 
L 724.090909 766.173988 
L 715.5 762.832162 
L 706.909091 759.220657 
L 698.318182 755.330078 
L 689.727273 751.149813 
L 681.136364 746.667846 
L 674.263636 742.855949 
L 667.390909 738.834443 
L 660.518182 734.594616 
L 653.645455 730.126756 
L 646.772727 725.419989 
L 639.9 720.462104 
L 633.027273 715.239315 
L 626.154545 709.735988 
L 619.281818 703.934287 
L 612.409091 697.813728 
L 605.536364 691.350618 
L 598.663636 684.517312 
L 591.790909 677.281242 
L 586.636364 671.566817 
L 581.481818 665.58495 
L 576.327273 659.313324 
L 571.172727 652.725786 
L 566.018182 645.791358 
L 560.863636 638.472883 
L 555.709091 630.725144 
L 550.554545 622.492166 
L 545.4 613.703228 
L 541.963636 607.490957 
L 538.527273 600.957344 
L 535.090909 594.060346 
L 531.654545 586.747198 
L 528.218182 578.950127 
L 524.781818 570.579544 
L 521.345455 561.512672 
L 517.909091 551.573147 
L 514.472727 540.490909 
L 512.754545 534.391323 
L 511.036364 527.812416 
L 509.318182 520.630397 
L 507.6 512.6555 
L 505.881818 503.568673 
L 504.163636 492.748602 
L 502.445455 478.593382 
L 500.727273 444.272727 
L 500.727273 444.272727 
L 502.568182 407.500597 
L 504.409091 392.33429 
L 506.25 380.741357 
L 508.090909 371.005471 
L 509.931818 362.460938 
L 511.772727 354.765917 
L 513.613636 347.717089 
L 515.454545 341.181818 
L 519.136364 329.307991 
L 522.818182 318.658501 
L 526.5 308.943995 
L 530.181818 299.975513 
L 533.863636 291.621508 
L 537.545455 283.785993 
L 541.227273 276.396352 
L 544.909091 269.396053 
L 548.590909 262.740048 
L 554.113636 253.323328 
L 559.636364 244.50228 
L 565.159091 236.201132 
L 570.681818 228.359909 
L 576.204545 220.930165 
L 581.727273 213.872088 
L 587.25 207.152488 
L 592.772727 200.743345 
L 598.295455 194.620747 
L 603.818182 188.764095 
L 611.181818 181.338317 
L 618.545455 174.317359 
L 625.909091 167.670393 
L 633.272727 161.371056 
L 640.636364 155.396606 
L 648 149.727273 
L 655.363636 144.345753 
L 662.727273 139.236813 
L 670.090909 134.386971 
L 677.454545 129.784241 
L 684.818182 125.41792 
L 692.181818 121.27842 
L 699.545455 117.357127 
L 706.909091 113.646275 
L 714.272727 110.138852 
L 723.477273 106.031042 
L 732.681818 102.220127 
L 741.886364 98.696284 
L 751.090909 95.450814 
L 760.295455 92.476011 
L 769.5 89.765063 
L 778.704545 87.311957 
L 787.909091 85.111411 
L 797.113636 83.158806 
L 806.318182 81.450141 
L 815.522727 79.981982 
L 824.727273 78.751431 
L 833.931818 77.756095 
L 843.136364 76.994062 
L 852.340909 76.463882 
L 861.545455 76.164553 
L 870.75 76.095511 
L 879.954545 76.256628 
L 889.159091 76.648206 
L 898.363636 77.270982 
L 907.568182 78.126137 
L 916.772727 79.215302 
L 925.977273 80.540582 
L 935.181818 82.104566 
L 944.386364 83.910364 
L 953.590909 85.961632 
L 962.795455 88.262612 
L 972 90.818182 
L 981.204545 93.633907 
L 990.409091 96.716111 
L 999.613636 100.071953 
L 1008.818182 103.709521 
L 1018.022727 107.637948 
L 1025.386364 110.996994 
L 1032.75 114.554654 
L 1040.113636 118.317431 
L 1047.477273 122.292517 
L 1054.840909 126.487878 
L 1062.204545 130.912362 
L 1069.568182 135.57582 
L 1076.931818 140.489258 
L 1084.295455 145.665015 
L 1091.659091 151.116986 
L 1099.022727 156.860888 
L 1106.386364 162.914599 
L 1113.75 169.298582 
L 1121.113636 176.036416 
L 1128.477273 183.155493 
L 1134 188.764095 
L 1139.522727 194.620747 
L 1145.045455 200.743345 
L 1150.568182 207.152488 
L 1156.090909 213.872088 
L 1161.613636 220.930165 
L 1167.136364 228.359909 
L 1172.659091 236.201132 
L 1178.181818 244.50228 
L 1183.704545 253.323328 
L 1189.227273 262.740048 
L 1192.909091 269.396053 
L 1196.590909 276.396352 
L 1200.272727 283.785993 
L 1203.954545 291.621508 
L 1207.636364 299.975513 
L 1211.318182 308.943995 
L 1215 318.658501 
L 1218.681818 329.307991 
L 1222.363636 341.181818 
L 1224.204545 347.717089 
L 1226.045455 354.765917 
L 1227.886364 362.460938 
L 1229.727273 371.005471 
L 1231.568182 380.741357 
L 1233.409091 392.33429 
L 1235.25 407.500597 
L 1237.090909 444.272727 
L 1237.090909 444.272727 
" />
</svg>
