<svg height="864pt" version="1.1" viewBox="0 0 1296 864" width="1296pt" xmlns="http://www.w3.org/2000/svg" xmlns:xlink="http://www.w3.org/1999/xlink">
<link xmlns="http://www.w3.org/1999/xhtml" rel="stylesheet" href="styles.css" type="text/css"/>
    <path class='path' fill="#FFFFFF" stroke="#000000" stroke-linecap="square" stroke-width="7" d="M 665.85124 440.92562 
L 665.672727 438.407393 
L 665.226446 436.244134 
L 664.601653 434.364227 
L 663.798347 432.614243 
L 662.727273 430.8373 
L 661.477686 429.220119 
L 660.049587 427.754659 
L 658.532231 426.512471 
L 656.836364 425.414803 
L 655.05124 424.526023 
L 653.17686 423.841508 
L 651.213223 423.365951 
L 649.249587 423.118169 
L 647.28595 423.088667 
L 645.322314 423.276349 
L 643.358678 423.688309 
L 641.484298 424.305981 
L 639.699174 425.121727 
L 638.003306 426.136 
L 636.396694 427.359852 
L 634.968595 428.725241 
L 633.719008 430.214876 
L 632.647934 431.816239 
L 631.755372 433.524349 
L 631.041322 435.351572 
L 630.505785 437.373268 
L 630.238017 439.142729 
L 629.791736 445.962074 
L 629.256198 448.858884 
L 628.542149 451.515182 
L 627.649587 454.048406 
L 626.578512 456.48797 
L 625.150413 459.144382 
L 623.543802 461.613813 
L 621.758678 463.919098 
L 619.795041 466.067366 
L 617.652893 468.057155 
L 615.510744 469.751918 
L 613.190083 471.312079 
L 610.690909 472.718372 
L 608.191736 473.87603 
L 605.51405 474.869272 
L 602.836364 475.628264 
L 600.158678 476.168145 
L 597.302479 476.513668 
L 594.446281 476.628099 
L 591.590083 476.513668 
L 588.733884 476.168145 
L 586.056198 475.628264 
L 583.378512 474.869272 
L 580.700826 473.87603 
L 578.201653 472.718372 
L 575.702479 471.312079 
L 573.381818 469.751918 
L 571.239669 468.057155 
L 569.097521 466.067366 
L 567.133884 463.919098 
L 565.34876 461.613813 
L 563.742149 459.144382 
L 562.492562 456.851287 
L 561.421488 454.491388 
L 560.528926 452.073715 
L 559.814876 449.605068 
L 559.279339 447.086238 
L 558.922314 444.491402 
L 558.476033 435.576946 
L 557.940496 431.684693 
L 557.13719 427.906447 
L 556.066116 424.203476 
L 554.727273 420.576968 
L 553.38843 417.582095 
L 551.781818 414.520866 
L 549.907438 411.457689 
L 548.033058 408.793388 
L 545.890909 406.119822 
L 543.480992 403.484905 
L 541.071074 401.169422 
L 538.393388 398.907275 
L 535.715702 396.923491 
L 532.770248 395.019898 
L 529.824793 393.37426 
L 526.61157 391.842826 
L 523.398347 390.56234 
L 520.185124 389.51405 
L 516.971901 388.683974 
L 513.490909 388.019126 
L 510.009917 387.589234 
L 506.528926 387.388639 
L 503.047934 387.414761 
L 499.566942 387.667934 
L 496.08595 388.151425 
L 492.604959 388.871653 
L 489.391736 389.755188 
L 486.178512 390.860053 
L 482.965289 392.2013 
L 479.752066 393.799108 
L 476.806612 395.512192 
L 473.861157 397.491771 
L 471.183471 399.554722 
L 468.505785 401.909429 
L 466.095868 404.324483 
L 463.953719 406.755997 
L 461.81157 409.520119 
L 459.93719 412.286895 
L 458.06281 415.489013 
L 456.456198 418.721806 
L 455.117355 421.932916 
L 454.046281 425.041276 
L 453.242975 427.906447 
L 452.439669 431.684693 
L 451.904132 435.576946 
L 451.279339 448.057184 
L 450.565289 453.246855 
L 449.85124 456.792149 
L 448.780165 460.919008 
L 447.352066 465.287167 
L 445.923967 468.910534 
L 444.138843 472.776954 
L 442.353719 476.131958 
L 440.21157 479.668979 
L 438.069421 482.799621 
L 435.570248 486.050786 
L 433.071074 488.953086 
L 430.214876 491.91896 
L 427.358678 494.569709 
L 424.145455 497.230365 
L 420.932231 499.595125 
L 417.719008 501.698539 
L 414.14876 503.760969 
L 410.578512 505.560914 
L 407.008264 507.119788 
L 403.438017 508.45429 
L 399.510744 509.678621 
L 395.583471 510.660706 
L 391.656198 511.410669 
L 387.728926 511.935868 
L 383.801653 512.241266 
L 379.87438 512.329686 
L 375.947107 512.201934 
L 372.019835 511.856842 
L 368.092562 511.291212 
L 364.165289 510.499667 
L 360.238017 509.47438 
L 356.310744 508.204666 
L 352.740496 506.82644 
L 349.170248 505.220819 
L 345.6 503.370267 
L 342.029752 501.252246 
L 338.816529 499.093276 
L 335.603306 496.666098 
L 332.390083 493.933883 
L 329.533884 491.209111 
L 326.677686 488.155561 
L 324.178512 485.160689 
L 321.679339 481.795213 
L 319.53719 478.540516 
L 317.395041 474.841096 
L 315.609917 471.302115 
L 314.181818 468.057155 
L 312.753719 464.280063 
L 311.682645 460.919008 
L 310.61157 456.792149 
L 309.897521 453.246855 
L 309.183471 448.057184 
L 308.380165 432.011164 
L 307.487603 425.524076 
L 306.595041 421.092459 
L 305.256198 415.933884 
L 303.917355 411.732566 
L 302.132231 407.011201 
L 300.347107 402.955001 
L 298.115702 398.531275 
L 295.884298 394.634856 
L 293.652893 391.14178 
L 290.975207 387.371901 
L 288.297521 383.976248 
L 285.173554 380.403928 
L 282.049587 377.183945 
L 278.92562 374.265221 
L 275.355372 371.250022 
L 271.785124 368.535871 
L 268.214876 366.090006 
L 264.198347 363.627485 
L 260.181818 361.443739 
L 256.165289 359.516334 
L 252.14876 357.827428 
L 248.132231 356.362732 
L 243.669421 354.984368 
L 239.206612 353.85621 
L 234.743802 352.968629 
L 230.280992 352.314396 
L 225.818182 351.888368 
L 221.355372 351.687275 
L 216.892562 351.709596 
L 212.429752 351.9555 
L 207.966942 352.42685 
L 203.504132 353.127278 
L 199.041322 354.062324 
L 194.578512 355.239669 
L 190.115702 356.669471 
L 186.099174 358.182909 
L 182.082645 359.923468 
L 178.066116 361.906154 
L 174.049587 364.149723 
L 170.479339 366.381998 
L 166.909091 368.859876 
L 163.338843 371.609691 
L 159.768595 374.66529 
L 156.644628 377.624472 
L 153.520661 380.891288 
L 150.396694 384.519163 
L 147.719008 387.972166 
L 145.041322 391.812402 
L 142.809917 395.378714 
L 140.578512 399.368735 
L 138.793388 402.955001 
L 137.008264 407.011201 
L 135.22314 411.732566 
L 133.884298 415.933884 
L 132.545455 421.092459 
L 131.652893 425.524076 
L 131.206612 428.334484 
L 130.760331 432.011164 
L 130.31405 440.92562 
L 130.31405 440.92562 
L 130.849587 451.622967 
L 131.385124 456.034983 
L 132.456198 462.239731 
L 133.527273 466.963965 
L 135.133884 472.694307 
L 136.740496 477.46794 
L 138.347107 481.622923 
L 140.489256 486.490363 
L 142.631405 490.793881 
L 144.773554 494.669118 
L 147.45124 499.040659 
L 150.128926 502.990198 
L 153.342149 507.278224 
L 156.555372 511.158622 
L 159.768595 514.695746 
L 162.981818 517.936911 
L 166.730579 521.391753 
L 170.479339 524.536337 
L 174.228099 527.404513 
L 178.512397 530.377966 
L 182.796694 533.056696 
L 187.080992 535.465758 
L 191.365289 537.625309 
L 195.649587 539.55174 
L 199.933884 541.25848 
L 204.753719 542.92964 
L 209.573554 544.349485 
L 214.393388 545.528249 
L 219.213223 546.474009 
L 224.033058 547.192987 
L 228.852893 547.689764 
L 233.672727 547.967434 
L 238.492562 548.027702 
L 243.312397 547.870935 
L 248.132231 547.496175 
L 252.952066 546.901109 
L 257.771901 546.081998 
L 262.591736 545.033554 
L 267.41157 543.74876 
L 272.231405 542.218625 
L 277.05124 540.431831 
L 281.335537 538.616763 
L 285.619835 536.57562 
L 289.904132 534.293576 
L 294.18843 531.752475 
L 298.472727 528.929878 
L 302.221488 526.20729 
L 305.970248 523.224288 
L 309.719008 519.951386 
L 313.467769 516.350857 
L 316.680992 512.966818 
L 319.894215 509.264866 
L 323.107438 505.190083 
L 325.785124 501.455538 
L 328.46281 497.347964 
L 331.140496 492.778785 
L 333.282645 488.702621 
L 335.424793 484.138527 
L 337.031405 480.293978 
L 338.638017 475.957285 
L 340.244628 470.915702 
L 341.315702 466.963965 
L 342.386777 462.239731 
L 343.457851 456.034983 
L 343.993388 451.622967 
L 344.528926 440.92562 
L 344.528926 440.92562 
L 343.904132 428.445382 
L 343.279339 423.298029 
L 342.029752 416.059157 
L 340.780165 410.547551 
L 339.530579 405.93719 
L 337.656198 400.055344 
L 335.781818 394.995868 
L 333.907438 390.510562 
L 331.408264 385.185785 
L 328.909091 380.43026 
L 326.409917 376.118551 
L 323.28595 371.228244 
L 320.161983 366.790784 
L 317.038017 362.729039 
L 313.91405 358.987117 
L 310.165289 354.860472 
L 306.416529 351.079114 
L 302.667769 347.601061 
L 298.919008 344.393525 
L 294.545455 340.958678 
L 290.171901 337.823351 
L 285.798347 334.960956 
L 281.424793 332.349903 
L 277.05124 329.972446 
L 272.052893 327.522608 
L 267.054545 325.340532 
L 262.056198 323.411301 
L 257.057851 321.722639 
L 252.059504 320.264444 
L 247.061157 319.028446 
L 242.06281 318.007941 
L 237.064463 317.197597 
L 232.066116 316.593305 
L 227.067769 316.192071 
L 222.069421 315.991936 
L 217.071074 315.991936 
L 212.072727 316.192071 
L 207.07438 316.593305 
L 202.076033 317.197597 
L 197.077686 318.007941 
L 192.079339 319.028446 
L 187.080992 320.264444 
L 182.082645 321.722639 
L 177.084298 323.411301 
L 172.08595 325.340532 
L 167.087603 327.522608 
L 162.089256 329.972446 
L 157.715702 332.349903 
L 153.342149 334.960956 
L 148.968595 337.823351 
L 144.595041 340.958678 
L 140.221488 344.393525 
L 136.472727 347.601061 
L 132.723967 351.079114 
L 128.975207 354.860472 
L 125.226446 358.987117 
L 122.102479 362.729039 
L 118.978512 366.790784 
L 115.854545 371.228244 
L 112.730579 376.118551 
L 110.231405 380.43026 
L 107.732231 385.185785 
L 105.233058 390.510562 
L 103.358678 394.995868 
L 101.484298 400.055344 
L 99.609917 405.93719 
L 98.360331 410.547551 
L 97.110744 416.059157 
L 96.48595 419.363458 
L 95.861157 423.298029 
L 95.236364 428.445382 
L 94.61157 440.92562 
L 94.61157 440.92562 
L 95.32562 455.188749 
L 96.039669 461.071438 
L 96.753719 465.568091 
L 98.181818 472.658678 
L 99.609917 478.377504 
L 101.038017 483.283869 
L 103.180165 489.648714 
L 105.322314 495.188691 
L 107.464463 500.13579 
L 109.606612 504.628288 
L 112.46281 510.063174 
L 115.319008 514.990841 
L 118.175207 519.506769 
L 121.745455 524.673622 
L 125.315702 529.395759 
L 128.88595 533.74108 
L 132.456198 537.760327 
L 136.740496 542.207456 
L 141.024793 546.293309 
L 145.309091 550.058469 
L 149.593388 553.535111 
L 153.877686 556.749217 
L 158.876033 560.195415 
L 163.87438 563.340878 
L 168.872727 566.20826 
L 173.871074 568.816266 
L 178.869421 571.180478 
L 183.867769 573.313956 
L 188.866116 575.227699 
L 193.864463 576.93098 
L 199.57686 578.629856 
L 205.289256 580.073714 
L 211.001653 581.270427 
L 216.71405 582.226273 
L 222.426446 582.946116 
L 228.138843 583.433532 
L 233.85124 583.690902 
L 239.563636 583.71947 
L 245.276033 583.519374 
L 250.98843 583.089647 
L 256.700826 582.428198 
L 262.413223 581.531756 
L 268.12562 580.395791 
L 273.838017 579.014392 
L 279.550413 577.380104 
L 285.26281 575.483713 
L 290.261157 573.600568 
L 295.259504 571.49911 
L 300.257851 569.168608 
L 305.256198 566.596319 
L 310.254545 563.767055 
L 315.252893 560.662602 
L 320.25124 557.260931 
L 324.535537 554.0884 
L 328.819835 550.657177 
L 333.104132 546.942147 
L 337.38843 542.9123 
L 341.672727 538.52865 
L 345.242975 534.569623 
L 348.813223 530.29314 
L 352.383471 525.651146 
L 355.953719 520.579764 
L 358.809917 516.155412 
L 361.666116 511.338295 
L 364.522314 506.041305 
L 366.664463 501.67861 
L 368.806612 496.895448 
L 370.94876 491.57283 
L 373.090909 485.518002 
L 374.519008 480.912397 
L 375.947107 475.643413 
L 377.375207 469.344435 
L 378.089256 465.568091 
L 378.803306 461.071438 
L 379.517355 455.188749 
L 380.231405 440.92562 
L 380.231405 440.92562 
L 379.428099 424.879599 
L 378.624793 418.261575 
L 377.821488 413.20284 
L 376.214876 405.22593 
L 374.608264 398.792251 
L 373.001653 393.272589 
L 371.395041 388.378122 
L 368.985124 381.873082 
L 366.575207 376.106259 
L 364.165289 370.895045 
L 361.755372 366.123227 
L 358.542149 360.310372 
L 355.328926 355.009447 
L 352.115702 350.130742 
L 348.902479 345.609402 
L 344.88595 340.387159 
L 340.869421 335.576116 
L 336.852893 331.122211 
L 332.836364 326.983554 
L 328.819835 323.126914 
L 324 318.833711 
L 319.180165 314.870585 
L 314.360331 311.20728 
L 309.540496 307.819039 
L 304.720661 304.685338 
L 299.900826 301.788976 
L 294.277686 298.690582 
L 288.654545 295.876086 
L 283.031405 293.329248 
L 277.408264 291.036423 
L 271.785124 288.986112 
L 266.161983 287.168612 
L 260.538843 285.575751 
L 254.915702 284.200682 
L 249.292562 283.037712 
L 243.669421 282.082184 
L 238.046281 281.330371 
L 232.42314 280.779404 
L 226.8 280.427215 
L 221.17686 280.272496 
L 215.553719 280.314677 
L 209.930579 280.553914 
L 204.307438 280.991089 
L 198.684298 281.627834 
L 193.061157 282.466554 
L 187.438017 283.510477 
L 181.814876 284.763719 
L 176.191736 286.231366 
L 170.568595 287.919589 
L 164.945455 289.835781 
L 159.322314 291.988741 
L 153.699174 294.388905 
L 148.076033 297.048642 
L 142.452893 299.98265 
L 137.633058 302.729005 
L 132.813223 305.702744 
L 127.993388 308.919233 
L 123.173554 312.396694 
L 118.353719 316.156947 
L 113.533884 320.226419 
L 108.71405 324.637569 
L 104.697521 328.603476 
L 100.680992 332.863822 
L 96.664463 337.45497 
L 92.647934 342.423165 
L 89.434711 346.709117 
L 86.221488 351.314708 
L 83.008264 356.292104 
L 79.795041 361.71136 
L 76.581818 367.670474 
L 74.171901 372.578506 
L 71.761983 377.959563 
L 69.352066 383.947508 
L 66.942149 390.75919 
L 65.335537 395.940496 
L 63.728926 401.868103 
L 62.122314 408.954453 
L 61.319008 413.20284 
L 60.515702 418.261575 
L 59.712397 424.879599 
L 58.909091 440.92562 
L 58.909091 440.92562 
L 59.801653 458.754531 
L 60.694215 466.107892 
L 61.586777 471.728708 
L 63.371901 480.591942 
L 65.157025 487.740475 
L 66.942149 493.873432 
L 68.727273 499.311728 
L 71.404959 506.53955 
L 74.082645 512.947132 
L 76.760331 518.73737 
L 79.438017 524.039389 
L 82.115702 528.941464 
L 85.68595 534.96286 
L 89.256198 540.493299 
L 92.826446 545.610623 
L 96.396694 550.372792 
L 99.966942 554.824363 
L 104.429752 560.004896 
L 108.892562 564.808593 
L 113.355372 569.277771 
L 117.818182 573.446279 
L 122.280992 577.341682 
L 127.636364 581.687484 
L 132.991736 585.705117 
L 138.347107 589.421219 
L 143.702479 592.857918 
L 149.057851 596.033787 
L 154.413223 598.964551 
L 159.768595 601.663618 
L 165.123967 604.142483 
L 171.371901 606.769305 
L 177.619835 609.123236 
L 183.867769 611.215593 
L 190.115702 613.055915 
L 196.363636 614.652211 
L 202.61157 616.011157 
L 208.859504 617.138244 
L 215.107438 618.037898 
L 221.355372 618.713571 
L 227.603306 619.167812 
L 233.85124 619.40231 
L 240.099174 619.417933 
L 246.347107 619.214736 
L 252.595041 618.791971 
L 258.842975 618.148067 
L 265.090909 617.2806 
L 271.338843 616.186251 
L 277.586777 614.860738 
L 283.834711 613.298728 
L 290.082645 611.493724 
L 296.330579 609.437918 
L 302.578512 607.122003 
L 308.826446 604.534934 
L 314.181818 602.091768 
L 319.53719 599.430153 
L 324.892562 596.538881 
L 330.247934 593.404886 
L 335.603306 590.012864 
L 340.958678 586.344759 
L 346.31405 582.379095 
L 351.669421 578.090066 
L 356.132231 574.246417 
L 360.595041 570.134565 
L 365.057851 565.728001 
L 369.520661 560.994284 
L 373.983471 555.893008 
L 377.553719 551.513293 
L 381.123967 546.832528 
L 384.694215 541.808818 
L 388.264463 536.388034 
L 391.834711 530.498117 
L 394.512397 525.71431 
L 397.190083 520.553955 
L 399.867769 514.938332 
L 402.545455 508.754458 
L 405.22314 501.829487 
L 407.008264 496.666098 
L 408.793388 490.909091 
L 410.578512 484.322861 
L 412.363636 476.449138 
L 413.256198 471.728708 
L 414.14876 466.107892 
L 415.041322 458.754531 
L 416.915702 421.313817 
L 417.897521 413.22512 
L 418.879339 407.042222 
L 419.861157 401.84975 
L 421.824793 393.188655 
L 423.78843 385.943802 
L 425.752066 379.611094 
L 427.715702 373.931366 
L 429.679339 368.750296 
L 432.624793 361.701957 
L 435.570248 355.332695 
L 438.515702 349.500474 
L 441.461157 344.108191 
L 444.406612 339.08594 
L 448.333884 332.87654 
L 452.261157 327.140559 
L 456.18843 321.809586 
L 460.115702 316.831414 
L 464.042975 312.165116 
L 468.952066 306.721453 
L 473.861157 301.663095 
L 478.770248 296.949423 
L 483.679339 292.547586 
L 488.58843 288.430576 
L 493.497521 284.575891 
L 498.406612 280.964567 
L 504.297521 276.929651 
L 510.18843 273.198427 
L 516.079339 269.751033 
L 521.970248 266.570633 
L 527.861157 263.642856 
L 533.752066 260.955374 
L 539.642975 258.497566 
L 545.533884 256.260262 
L 551.424793 254.235532 
L 557.315702 252.416529 
L 564.18843 250.546543 
L 571.061157 248.94062 
L 577.933884 247.592182 
L 584.806612 246.49587 
L 591.679339 245.647438 
L 598.552066 245.043665 
L 605.424793 244.682293 
L 612.297521 244.561983 
L 619.170248 244.682293 
L 626.042975 245.043665 
L 632.915702 245.647438 
L 639.78843 246.49587 
L 646.661157 247.592182 
L 653.533884 248.94062 
L 660.406612 250.546543 
L 667.279339 252.416529 
L 673.170248 254.235532 
L 679.061157 256.260262 
L 684.952066 258.497566 
L 690.842975 260.955374 
L 696.733884 263.642856 
L 702.624793 266.570633 
L 708.515702 269.751033 
L 714.406612 273.198427 
L 720.297521 276.929651 
L 726.18843 280.964567 
L 731.097521 284.575891 
L 736.006612 288.430576 
L 740.915702 292.547586 
L 745.824793 296.949423 
L 750.733884 301.663095 
L 755.642975 306.721453 
L 760.552066 312.165116 
L 764.479339 316.831414 
L 768.406612 321.809586 
L 772.333884 327.140559 
L 776.261157 332.87654 
L 780.18843 339.08594 
L 783.133884 344.108191 
L 786.079339 349.500474 
L 789.024793 355.332695 
L 791.970248 361.701957 
L 794.915702 368.750296 
L 796.879339 373.931366 
L 798.842975 379.611094 
L 800.806612 385.943802 
L 802.770248 393.188655 
L 804.733884 401.84975 
L 805.715702 407.042222 
L 806.697521 413.22512 
L 807.679339 421.313817 
L 809.732231 462.320314 
L 810.803306 471.144347 
L 811.87438 477.889326 
L 812.945455 483.553842 
L 815.087603 493.002309 
L 817.229752 500.905785 
L 819.371901 507.814193 
L 821.51405 514.010261 
L 823.656198 519.662337 
L 826.869421 527.351434 
L 830.082645 534.29972 
L 833.295868 540.662143 
L 836.509091 546.544633 
L 839.722314 552.023452 
L 842.935537 557.155698 
L 847.219835 563.5344 
L 851.504132 569.454545 
L 855.78843 574.976901 
L 860.072727 580.14881 
L 864.357025 585.008017 
L 868.641322 589.585188 
L 873.996694 594.948201 
L 879.352066 599.95041 
L 884.707438 604.624894 
L 890.06281 608.998999 
L 895.418182 613.095621 
L 900.773554 616.934136 
L 906.128926 620.531093 
L 911.484298 623.900739 
L 917.910744 627.661533 
L 924.33719 631.13106 
L 930.763636 634.324998 
L 937.190083 637.256797 
L 943.616529 639.938042 
L 950.042975 642.378738 
L 956.469421 644.587533 
L 962.895868 646.571901 
L 969.322314 648.338282 
L 975.74876 649.892204 
L 982.175207 651.238377 
L 988.601653 652.380769 
L 995.028099 653.322667 
L 1001.454545 654.06673 
L 1007.880992 654.615025 
L 1014.307438 654.969055 
L 1020.733884 655.129785 
L 1027.160331 655.097649 
L 1033.586777 654.87256 
L 1040.013223 654.453908 
L 1046.439669 653.840552 
L 1052.866116 653.030801 
L 1059.292562 652.022397 
L 1065.719008 650.812476 
L 1072.145455 649.39753 
L 1078.571901 647.77335 
L 1084.998347 645.934964 
L 1091.424793 643.876551 
L 1097.85124 641.591341 
L 1104.277686 639.071485 
L 1110.704132 636.307907 
L 1117.130579 633.290101 
L 1123.557025 630.005896 
L 1129.983471 626.441144 
L 1136.409917 622.579329 
L 1141.765289 619.120339 
L 1147.120661 615.428587 
L 1152.476033 611.48896 
L 1157.831405 607.28385 
L 1163.186777 602.792566 
L 1168.542149 597.990561 
L 1173.897521 592.848375 
L 1179.252893 587.330165 
L 1183.53719 582.615442 
L 1187.821488 577.604112 
L 1192.105785 572.262226 
L 1196.390083 566.547623 
L 1200.67438 560.406835 
L 1204.958678 553.770308 
L 1208.171901 548.412617 
L 1211.385124 542.672049 
L 1214.598347 536.479622 
L 1217.81157 529.740874 
L 1221.024793 522.320226 
L 1223.166942 516.896436 
L 1225.309091 510.98895 
L 1227.45124 504.462994 
L 1229.593388 497.103446 
L 1231.735537 488.525206 
L 1232.806612 483.553842 
L 1233.877686 477.889326 
L 1234.94876 471.144347 
L 1236.019835 462.320314 
L 1237.090909 440.92562 
L 1237.090909 440.92562 
L 1235.930579 417.748035 
L 1234.770248 408.188666 
L 1233.609917 400.881605 
L 1232.449587 394.745046 
L 1231.289256 389.359401 
L 1228.968595 380.066309 
L 1226.647934 372.093464 
L 1224.327273 365.023679 
L 1222.006612 358.623903 
L 1219.68595 352.74813 
L 1216.204959 344.709094 
L 1212.723967 337.408784 
L 1209.242975 330.700322 
L 1205.761983 324.481373 
L 1202.280992 318.677208 
L 1198.8 313.231253 
L 1194.158678 306.452366 
L 1189.517355 300.152126 
L 1184.876033 294.268831 
L 1180.234711 288.754115 
L 1175.593388 283.56922 
L 1170.952066 278.682524 
L 1166.310744 274.067823 
L 1160.509091 268.648763 
L 1154.707438 263.584739 
L 1148.905785 258.846125 
L 1143.104132 254.408119 
L 1137.302479 250.249728 
L 1131.500826 246.353024 
L 1125.699174 242.702574 
L 1119.897521 239.285002 
L 1114.095868 236.088653 
L 1107.133884 232.530765 
L 1100.171901 229.261475 
L 1093.209917 226.267599 
L 1086.247934 223.537756 
L 1079.28595 221.062111 
L 1072.323967 218.832164 
L 1065.361983 216.840579 
L 1058.4 215.081051 
L 1051.438017 213.548192 
L 1044.476033 212.237444 
L 1037.51405 211.145006 
L 1030.552066 210.267777 
L 1023.590083 209.603308 
L 1016.628099 209.149768 
L 1009.666116 208.905922 
L 1002.704132 208.871108 
L 995.742149 209.045231 
L 988.780165 209.428764 
L 981.818182 210.02275 
L 974.856198 210.828819 
L 967.894215 211.849209 
L 960.932231 213.0868 
L 953.970248 214.545154 
L 947.008264 216.22857 
L 940.046281 218.142149 
L 933.084298 220.29188 
L 926.122314 222.684742 
L 919.160331 225.328829 
L 912.198347 228.233512 
L 905.236364 231.409627 
L 898.27438 234.869726 
L 892.472727 237.980518 
L 886.671074 241.308288 
L 880.869421 244.864084 
L 875.067769 248.660559 
L 869.266116 252.712274 
L 863.464463 257.036102 
L 857.66281 261.651729 
L 851.861157 266.58233 
L 846.059504 271.85546 
L 841.418182 276.342636 
L 836.77686 281.090346 
L 832.135537 286.122561 
L 827.494215 291.468015 
L 822.852893 297.161644 
L 818.21157 303.246639 
L 813.570248 309.777463 
L 810.089256 315.009702 
L 806.608264 320.569635 
L 803.127273 326.505022 
L 799.646281 332.87772 
L 796.165289 339.770345 
L 792.684298 347.297655 
L 790.363636 352.74813 
L 788.042975 358.623903 
L 785.722314 365.023679 
L 783.401653 372.093464 
L 781.080992 380.066309 
L 778.760331 389.359401 
L 777.6 394.745046 
L 776.439669 400.881605 
L 775.279339 408.188666 
L 774.119008 417.748035 
L 771.709091 465.886096 
L 770.459504 476.180801 
L 769.209917 484.049944 
L 767.960331 490.658546 
L 766.710744 496.458471 
L 764.21157 506.466417 
L 761.712397 515.052557 
L 759.213223 522.666171 
L 756.71405 529.558238 
L 754.214876 535.885994 
L 751.715702 541.755736 
L 747.966942 549.862069 
L 744.218182 557.284897 
L 740.469421 564.147802 
L 736.720661 570.539757 
L 732.971901 576.527378 
L 729.22314 582.162097 
L 724.224793 589.195291 
L 719.226446 595.748363 
L 714.228099 601.879964 
L 709.229752 607.636607 
L 704.231405 613.055915 
L 699.233058 618.168834 
L 694.234711 623.001176 
L 689.236364 627.574737 
L 682.98843 632.955845 
L 676.740496 637.992229 
L 670.492562 642.709704 
L 664.244628 647.130157 
L 657.996694 651.272315 
L 651.74876 655.152322 
L 645.500826 658.784185 
L 639.252893 662.180124 
L 633.004959 665.350848 
L 626.757025 668.305781 
L 620.509091 671.053234 
L 613.01157 674.086592 
L 605.51405 676.842838 
L 598.016529 679.331582 
L 590.519008 681.561125 
L 583.021488 683.538613 
L 575.523967 685.270165 
L 568.026446 686.760978 
L 560.528926 688.015409 
L 553.031405 689.037045 
L 545.533884 689.828752 
L 538.036364 690.392718 
L 530.538843 690.730487 
L 523.041322 690.842975 
L 515.543802 690.730487 
L 508.046281 690.392718 
L 500.54876 689.828752 
L 493.05124 689.037045 
L 485.553719 688.015409 
L 478.056198 686.760978 
L 470.558678 685.270165 
L 463.061157 683.538613 
L 455.563636 681.561125 
L 448.066116 679.331582 
L 440.568595 676.842838 
L 433.071074 674.086592 
L 425.573554 671.053234 
L 419.32562 668.305781 
L 413.077686 665.350848 
L 406.829752 662.180124 
L 400.581818 658.784185 
L 394.333884 655.152322 
L 388.08595 651.272315 
L 381.838017 647.130157 
L 375.590083 642.709704 
L 369.342149 637.992229 
L 363.094215 632.955845 
L 356.846281 627.574737 
L 351.847934 623.001176 
L 346.849587 618.168834 
L 341.85124 613.055915 
L 336.852893 607.636607 
L 331.854545 601.879964 
L 326.856198 595.748363 
L 321.857851 589.195291 
L 318.109091 583.969197 
L 314.360331 578.44263 
L 310.61157 572.577756 
L 306.86281 566.327116 
L 303.11405 559.629787 
L 299.365289 552.40529 
L 295.616529 544.543417 
L 293.117355 538.87282 
L 290.618182 532.785123 
L 288.119008 526.191034 
L 285.619835 518.962289 
L 283.120661 510.902479 
L 280.621488 501.681757 
L 279.371901 496.458471 
L 278.122314 490.658546 
L 276.872727 484.049944 
L 275.62314 476.180801 
L 274.373554 465.886096 
L 273.123967 440.92562 
L 273.123967 440.92562 
L 274.46281 414.182252 
L 275.801653 403.152211 
L 277.140496 394.720987 
L 278.479339 387.640342 
L 279.818182 381.426137 
L 282.495868 370.703338 
L 285.173554 361.503902 
L 287.85124 353.346457 
L 290.528926 345.9621 
L 293.206612 339.182362 
L 295.884298 332.893352 
L 298.561983 327.013763 
L 302.578512 318.833711 
L 306.595041 311.292706 
L 310.61157 304.284904 
L 314.628099 297.731998 
L 318.644628 291.5741 
L 322.661157 285.764174 
L 326.677686 280.264463 
L 332.033058 273.361519 
L 337.38843 266.896632 
L 342.743802 260.822624 
L 348.099174 255.10116 
L 353.454545 249.700594 
L 358.809917 244.594443 
L 364.165289 239.760286 
L 369.520661 235.17895 
L 376.214876 229.782824 
L 382.909091 224.728387 
L 389.603306 219.992188 
L 396.297521 215.554161 
L 402.991736 211.39701 
L 409.68595 207.505729 
L 416.380165 203.867223 
L 423.07438 200.470018 
L 429.768595 197.304019 
L 436.46281 194.360319 
L 443.157025 191.631045 
L 449.85124 189.109222 
L 456.545455 186.788677 
L 464.578512 184.262053 
L 472.61157 182.009173 
L 480.644628 180.022943 
L 488.677686 178.297314 
L 496.710744 176.827177 
L 504.743802 175.608286 
L 512.77686 174.63719 
L 520.809917 173.911186 
L 528.842975 173.428278 
L 536.876033 173.18715 
L 544.909091 173.18715 
L 552.942149 173.428278 
L 560.975207 173.911186 
L 569.008264 174.63719 
L 577.041322 175.608286 
L 585.07438 176.827177 
L 593.107438 178.297314 
L 601.140496 180.022943 
L 609.173554 182.009173 
L 617.206612 184.262053 
L 625.239669 186.788677 
L 631.933884 189.109222 
L 638.628099 191.631045 
L 645.322314 194.360319 
L 652.016529 197.304019 
L 658.710744 200.470018 
L 665.404959 203.867223 
L 672.099174 207.505729 
L 678.793388 211.39701 
L 685.487603 215.554161 
L 692.181818 219.992188 
L 698.876033 224.728387 
L 705.570248 229.782824 
L 712.264463 235.17895 
L 717.619835 239.760286 
L 722.975207 244.594443 
L 728.330579 249.700594 
L 733.68595 255.10116 
L 739.041322 260.822624 
L 744.396694 266.896632 
L 749.752066 273.361519 
L 755.107438 280.264463 
L 759.123967 285.764174 
L 763.140496 291.5741 
L 767.157025 297.731998 
L 771.173554 304.284904 
L 775.190083 311.292706 
L 779.206612 318.833711 
L 783.22314 327.013763 
L 785.900826 332.893352 
L 788.578512 339.182362 
L 791.256198 345.9621 
L 793.933884 353.346457 
L 796.61157 361.503902 
L 799.289256 370.703338 
L 800.628099 375.829758 
L 801.966942 381.426137 
L 803.305785 387.640342 
L 804.644628 394.720987 
L 805.983471 403.152211 
L 807.322314 414.182252 
L 808.661157 440.92562 
L 808.661157 440.92562 
" />

</svg>
