
<svg height="864pt" version="1.1" viewBox="0 0 1296 864" width="1296pt" xmlns="http://www.w3.org/2000/svg" xmlns:xlink="http://www.w3.org/1999/xlink">
<link xmlns="http://www.w3.org/1999/xhtml" rel="stylesheet" href="styles.css" type="text/css"/>
    <path class='path' fill="#FFFFFF" stroke="#000000" stroke-linecap="square" stroke-width="7" d="M 1237.090909 425.596838 
L 1236.898814 423.387051 
L 1236.450593 421.598065 
L 1235.810277 420.014691 
L 1234.977866 418.550159 
L 1233.95336 417.199414 
L 1232.736759 415.975887 
L 1231.392095 414.943893 
L 1229.919368 414.096787 
L 1228.382609 413.463902 
L 1226.781818 413.036354 
L 1225.116996 412.817596 
L 1223.452174 412.817596 
L 1221.787352 413.036354 
L 1220.186561 413.463902 
L 1218.649802 414.096787 
L 1217.177075 414.943893 
L 1215.832411 415.975887 
L 1214.61581 417.199414 
L 1213.591304 418.550159 
L 1212.758893 420.014691 
L 1212.118577 421.598065 
L 1211.734387 423.048412 
L 1211.542292 424.317807 
L 1211.222134 429.209947 
L 1210.709881 431.823399 
L 1209.941502 434.335219 
L 1209.045059 436.492755 
L 1207.89249 438.666819 
L 1206.611858 440.61686 
L 1205.075099 442.538012 
L 1203.410277 444.256755 
L 1201.617391 445.793105 
L 1199.696443 447.154108 
L 1197.647431 448.338793 
L 1195.470356 449.340398 
L 1193.165217 450.147266 
L 1190.860079 450.717806 
L 1188.554941 451.067905 
L 1186.121739 451.208206 
L 1183.688538 451.116793 
L 1181.383399 450.814243 
L 1179.078261 450.293793 
L 1176.773123 449.54124 
L 1174.596047 448.596939 
L 1172.547036 447.474298 
L 1170.626087 446.182382 
L 1168.833202 444.725474 
L 1167.168379 443.101729 
L 1165.631621 441.300128 
L 1164.222925 439.293619 
L 1163.070356 437.275194 
L 1162.04585 435.011011 
L 1161.27747 432.768379 
L 1160.765217 430.693691 
L 1160.381028 428.154899 
L 1160.06087 421.759746 
L 1159.67668 418.967478 
L 1159.100395 416.256997 
L 1158.332016 413.600518 
L 1157.371542 410.998892 
L 1156.218972 408.459435 
L 1154.874308 405.991866 
L 1153.337549 403.60722 
L 1151.608696 401.317537 
L 1149.687747 399.135814 
L 1147.574704 397.076087 
L 1145.269565 395.15359 
L 1142.964427 393.51067 
L 1140.467194 391.998903 
L 1137.777866 390.642434 
L 1135.088538 389.536687 
L 1132.399209 388.659139 
L 1129.517787 387.954086 
L 1126.636364 387.479196 
L 1123.754941 387.225919 
L 1120.873518 387.189873 
L 1117.992095 387.370443 
L 1115.110672 387.770731 
L 1112.229249 388.397828 
L 1109.347826 389.263477 
L 1106.658498 390.302053 
L 1103.96917 391.584111 
L 1101.471937 393.01764 
L 1098.974704 394.718523 
L 1096.669565 396.566353 
L 1094.556522 398.542133 
L 1092.635573 400.627461 
L 1090.906719 402.803829 
L 1089.177866 405.358388 
L 1087.833202 407.709309 
L 1086.488538 410.539737 
L 1085.528063 413.031132 
L 1084.759684 415.521467 
L 1084.183399 417.951559 
L 1083.799209 420.177175 
L 1083.607115 421.759746 
L 1083.158893 430.71296 
L 1082.64664 434.435985 
L 1081.878261 438.049959 
L 1080.853755 441.591932 
L 1079.573123 445.060765 
L 1078.036364 448.446708 
L 1076.499605 451.30025 
L 1074.706719 454.168433 
L 1072.657708 457.003418 
L 1070.608696 459.479187 
L 1068.303557 461.926192 
L 1065.742292 464.304151 
L 1063.181028 466.383724 
L 1060.363636 468.378395 
L 1057.546245 470.106138 
L 1054.472727 471.721655 
L 1051.399209 473.083959 
L 1048.325692 474.21434 
L 1044.996047 475.195518 
L 1041.666403 475.93791 
L 1038.336759 476.451975 
L 1035.007115 476.744597 
L 1031.67747 476.819573 
L 1028.347826 476.67786 
L 1025.018182 476.317642 
L 1021.688538 475.73421 
L 1018.358893 474.919643 
L 1015.029249 473.862241 
L 1011.955731 472.656551 
L 1008.882213 471.212526 
L 1005.808696 469.506659 
L 1002.991304 467.685831 
L 1000.173913 465.584572 
L 997.612648 463.39177 
L 995.30751 461.145865 
L 993.002372 458.58748 
L 990.95336 455.987516 
L 989.160474 453.390987 
L 987.367589 450.396178 
L 985.83083 447.388671 
L 984.550198 444.425183 
L 983.525692 441.591932 
L 982.501186 438.049959 
L 981.732806 434.435985 
L 981.220553 430.71296 
L 980.644269 419.201685 
L 980.003953 414.547904 
L 979.043478 410.030436 
L 978.083004 406.604688 
L 976.802372 402.88817 
L 975.201581 399.0488 
L 973.600791 395.78429 
L 971.679842 392.388247 
L 969.758893 389.410474 
L 967.517787 386.338613 
L 964.956522 383.243902 
L 962.395257 380.505663 
L 959.513834 377.775247 
L 956.632411 375.357513 
L 953.750988 373.209149 
L 950.549407 371.099383 
L 947.347826 369.249921 
L 943.826087 367.486599 
L 940.304348 365.982918 
L 936.782609 364.719636 
L 933.26087 363.682035 
L 929.73913 362.858919 
L 925.897233 362.195833 
L 922.055336 361.770447 
L 918.213439 361.578025 
L 914.371542 361.616463 
L 910.529644 361.88618 
L 906.687747 362.390136 
L 902.84585 363.134 
L 899.324111 364.034006 
L 895.802372 365.152209 
L 892.280632 366.500994 
L 888.758893 368.096585 
L 885.557312 369.779038 
L 882.355731 371.703663 
L 879.15415 373.8975 
L 876.272727 376.131634 
L 873.391304 378.648078 
L 870.83004 381.160554 
L 868.268775 383.98121 
L 866.027668 386.754653 
L 863.786561 389.882344 
L 861.865613 392.921884 
L 859.944664 396.400947 
L 858.343874 399.763035 
L 857.063241 402.88817 
L 855.782609 406.604688 
L 854.822134 410.030436 
L 854.181818 412.854706 
L 853.541502 416.564066 
L 853.221344 419.201685 
L 852.516996 433.271022 
L 851.748617 438.855559 
L 850.980237 442.670603 
L 849.827668 447.111462 
L 848.675099 450.72825 
L 847.13834 454.792729 
L 845.601581 458.284588 
L 843.680632 462.09284 
L 841.759684 465.447147 
L 839.454545 469.020475 
L 837.149407 472.20746 
L 834.460079 475.535591 
L 831.770751 478.518885 
L 828.697233 481.57659 
L 825.623715 484.315056 
L 822.550198 486.777167 
L 819.09249 489.256507 
L 815.634783 491.461569 
L 812.177075 493.419111 
L 808.335178 495.329125 
L 804.493281 496.981728 
L 800.651383 498.394455 
L 796.809486 499.581046 
L 792.967589 500.552243 
L 788.741502 501.381608 
L 784.515415 501.968498 
L 780.289328 502.318477 
L 776.063241 502.434783 
L 771.837154 502.318477 
L 767.611067 501.968498 
L 763.38498 501.381608 
L 759.158893 500.552243 
L 755.316996 499.581046 
L 751.475099 498.394455 
L 747.633202 496.981728 
L 743.791304 495.329125 
L 739.949407 493.419111 
L 736.4917 491.461569 
L 733.033992 489.256507 
L 729.576285 486.777167 
L 726.502767 484.315056 
L 723.429249 481.57659 
L 720.355731 478.518885 
L 717.666403 475.535591 
L 714.977075 472.20746 
L 712.671937 469.020475 
L 710.366798 465.447147 
L 708.44585 462.09284 
L 706.524901 458.284588 
L 704.988142 454.792729 
L 703.451383 450.72825 
L 702.298814 447.111462 
L 701.146245 442.670603 
L 700.377866 438.855559 
L 699.993676 436.436164 
L 699.609486 433.271022 
L 698.777075 416.643624 
L 697.880632 410.12833 
L 696.98419 405.677446 
L 695.639526 400.496443 
L 694.294862 396.276857 
L 692.501976 391.534965 
L 690.709091 387.461129 
L 688.467984 383.018169 
L 686.226877 379.10481 
L 683.985771 375.596547 
L 681.296443 371.810277 
L 678.607115 368.39986 
L 675.469565 364.812008 
L 672.332016 361.578025 
L 669.194466 358.646611 
L 665.608696 355.618303 
L 662.022925 352.892352 
L 658.437154 350.435852 
L 654.403162 347.962624 
L 650.36917 345.769384 
L 646.335178 343.833598 
L 642.301186 342.13735 
L 638.267194 340.666285 
L 633.78498 339.281928 
L 629.302767 338.148865 
L 624.820553 337.257426 
L 620.33834 336.600348 
L 615.856126 336.172467 
L 611.373913 335.9705 
L 606.8917 335.992918 
L 602.409486 336.239891 
L 597.927273 336.713291 
L 593.445059 337.416764 
L 588.962846 338.355876 
L 584.480632 339.53834 
L 580.44664 340.818997 
L 576.412648 342.314466 
L 572.378656 344.036563 
L 568.344664 345.999996 
L 564.310672 348.223136 
L 560.724901 350.435852 
L 557.13913 352.892352 
L 553.55336 355.618303 
L 549.967589 358.646611 
L 546.83004 361.578025 
L 543.69249 364.812008 
L 540.554941 368.39986 
L 537.865613 371.810277 
L 535.176285 375.596547 
L 532.935178 379.10481 
L 530.694071 383.018169 
L 528.901186 386.521807 
L 527.1083 390.463603 
L 525.315415 395.012505 
L 523.970751 399.007828 
L 522.626087 403.803876 
L 521.729644 407.757854 
L 520.833202 412.950958 
L 520.38498 416.643624 
L 519.424506 435.829083 
L 518.912253 440.049273 
L 517.887747 445.984249 
L 516.863241 450.503081 
L 515.326482 455.984278 
L 513.789723 460.550362 
L 512.252964 464.524693 
L 510.203953 469.180505 
L 508.154941 473.296914 
L 505.593676 477.876764 
L 503.032411 481.970271 
L 500.471146 485.676926 
L 497.397628 489.70832 
L 494.324111 493.361536 
L 491.250593 496.694892 
L 487.664822 500.236507 
L 484.079051 503.452548 
L 480.493281 506.381908 
L 476.395257 509.41714 
L 472.297233 512.152432 
L 468.199209 514.615438 
L 464.101186 516.828214 
L 460.003162 518.808581 
L 455.392885 520.776692 
L 450.782609 522.4858 
L 446.172332 523.949407 
L 441.562055 525.17834 
L 436.951779 526.1812 
L 432.341502 526.964698 
L 427.731225 527.533891 
L 423.120949 527.892357 
L 418.510672 528.042308 
L 413.900395 527.984661 
L 409.290119 527.719063 
L 404.679842 527.243884 
L 400.069565 526.556166 
L 395.459289 525.651526 
L 390.849012 524.524013 
L 386.238735 523.165901 
L 381.628458 521.5674 
L 377.018182 519.716263 
L 372.920158 517.846472 
L 368.822134 515.751904 
L 364.724111 513.41648 
L 360.626087 510.820399 
L 356.528063 507.939012 
L 352.942292 505.15947 
L 349.356522 502.111383 
L 345.770751 498.761196 
L 342.697233 495.616403 
L 339.623715 492.181842 
L 336.550198 488.409997 
L 333.47668 484.23582 
L 330.915415 480.383963 
L 328.35415 476.110279 
L 326.305138 472.310264 
L 324.256126 468.073699 
L 322.207115 463.253529 
L 320.670356 459.105387 
L 319.133597 454.283004 
L 318.109091 450.503081 
L 317.084585 445.984249 
L 316.060079 440.049273 
L 315.547826 435.829083 
L 314.459289 414.085562 
L 313.883004 409.337849 
L 312.730435 402.661001 
L 311.577866 397.577315 
L 310.425296 393.324901 
L 308.696443 387.89972 
L 306.967589 383.233061 
L 305.238735 379.095992 
L 302.933597 374.18463 
L 300.628458 369.798323 
L 298.32332 365.821374 
L 295.441897 361.310749 
L 292.560474 357.217812 
L 289.679051 353.47142 
L 286.221344 349.361553 
L 282.763636 345.611527 
L 279.305929 342.172802 
L 275.271937 338.505383 
L 271.237945 335.166052 
L 267.203953 332.119641 
L 263.16996 329.338335 
L 259.135968 326.799741 
L 254.525692 324.172388 
L 249.915415 321.816 
L 245.305138 319.712484 
L 240.694862 317.84703 
L 236.084585 316.207458 
L 231.474308 314.783741 
L 226.287747 313.429886 
L 221.101186 312.329426 
L 215.914625 311.475028 
L 210.728063 310.861197 
L 205.541502 310.484082 
L 200.354941 310.341362 
L 195.168379 310.432163 
L 189.981818 310.757041 
L 184.795257 311.317992 
L 179.608696 312.118516 
L 174.422134 313.16373 
L 169.235573 314.460539 
L 164.625296 315.831642 
L 160.01502 317.416386 
L 155.404743 319.224319 
L 150.794466 321.267043 
L 146.18419 323.558658 
L 141.573913 326.116363 
L 137.539921 328.589123 
L 133.505929 331.298998 
L 129.471937 334.267094 
L 125.437945 337.519511 
L 121.403953 341.089071 
L 117.946245 344.432724 
L 114.488538 348.074244 
L 111.03083 352.057867 
L 108.149407 355.680905 
L 105.267984 359.627983 
L 102.386561 363.961322 
L 99.505138 368.769217 
L 97.2 373.044234 
L 94.894862 377.810369 
L 93.166008 381.803001 
L 91.437154 386.274124 
L 89.7083 391.410968 
L 88.555731 395.370725 
L 87.403162 399.986191 
L 86.250593 405.708757 
L 85.674308 409.337849 
L 85.098024 414.085562 
L 84.521739 425.596838 
L 84.521739 425.596838 
L 85.162055 438.387144 
L 85.802372 443.662381 
L 87.083004 451.081101 
L 88.363636 456.729641 
L 89.644269 461.454545 
L 91.565217 467.482524 
L 93.486166 472.667701 
L 95.407115 477.264444 
L 97.968379 482.721513 
L 100.529644 487.595188 
L 103.090909 492.01402 
L 106.29249 497.025826 
L 109.494071 501.573533 
L 112.695652 505.736191 
L 115.897233 509.57108 
L 119.73913 513.80025 
L 123.581028 517.675555 
L 127.422925 521.240019 
L 131.264822 524.527246 
L 135.747036 528.047431 
L 140.229249 531.260653 
L 144.711462 534.194164 
L 149.193676 536.870088 
L 153.675889 539.306612 
L 158.798419 541.817316 
L 163.920949 544.053605 
L 169.043478 546.030767 
L 174.166008 547.761384 
L 179.288538 549.255807 
L 184.411067 550.522513 
L 189.533597 551.568372 
L 194.656126 552.398849 
L 199.778656 553.018154 
L 204.901186 553.429357 
L 210.023715 553.634464 
L 215.146245 553.634464 
L 220.268775 553.429357 
L 225.391304 553.018154 
L 230.513834 552.398849 
L 235.636364 551.568372 
L 240.758893 550.522513 
L 245.881423 549.255807 
L 251.003953 547.761384 
L 256.126482 546.030767 
L 261.249012 544.053605 
L 266.371542 541.817316 
L 270.853755 539.636058 
L 275.335968 537.232438 
L 279.818182 534.591748 
L 284.300395 531.696286 
L 288.782609 528.524556 
L 293.264822 525.050128 
L 297.106719 521.806345 
L 300.948617 518.290211 
L 304.790514 514.469406 
L 308.632411 510.30271 
L 311.833992 506.527842 
L 315.035573 502.434783 
L 318.237154 497.969567 
L 321.438735 493.058336 
L 324 488.738639 
L 326.561265 483.988621 
L 329.12253 478.692914 
L 331.043478 474.256657 
L 332.964427 469.288743 
L 334.885375 463.581138 
L 336.166008 459.181408 
L 337.44664 454.053113 
L 338.727273 447.694706 
L 339.367589 443.662381 
L 340.007905 438.387144 
L 340.648221 425.596838 
L 340.648221 425.596838 
L 339.943874 411.527501 
L 339.239526 405.72474 
L 338.535178 401.289183 
L 337.126482 394.294936 
L 335.717787 388.653811 
L 334.309091 383.814108 
L 332.196047 377.535743 
L 330.083004 372.071037 
L 327.96996 367.191154 
L 325.152569 361.365877 
L 322.335178 356.140856 
L 319.517787 351.38919 
L 316.700395 347.024952 
L 313.178656 342.022473 
L 309.656917 337.44355 
L 306.135178 333.225172 
L 302.613439 329.319936 
L 298.387352 324.995846 
L 294.161265 321.020753 
L 289.935178 317.356199 
L 285.709091 313.971595 
L 281.483004 310.842169 
L 276.552569 307.486717 
L 271.622134 304.424444 
L 266.6917 301.633622 
L 261.761265 299.096282 
L 256.83083 296.797444 
L 251.900395 294.724539 
L 246.96996 292.86698 
L 241.335178 290.996355 
L 235.700395 289.384272 
L 230.065613 288.021642 
L 224.43083 286.901111 
L 218.796047 286.016849 
L 213.161265 285.364387 
L 207.526482 284.940499 
L 201.8917 284.743121 
L 196.256917 284.771301 
L 190.622134 285.025175 
L 184.987352 285.505968 
L 179.352569 286.216031 
L 173.717787 287.15889 
L 168.083004 288.339343 
L 162.448221 289.763583 
L 156.813439 291.439376 
L 151.178656 293.376286 
L 146.248221 295.294394 
L 141.317787 297.430691 
L 136.387352 299.796294 
L 131.456917 302.40441 
L 126.526482 305.270808 
L 121.596047 308.414441 
L 116.665613 311.858294 
L 112.439526 315.070322 
L 108.213439 318.545237 
L 103.987352 322.309567 
L 99.761265 326.396254 
L 96.239526 330.07782 
L 92.717787 334.042457 
L 89.196047 338.328739 
L 85.674308 342.986716 
L 82.152569 348.083368 
L 79.335178 352.537937 
L 76.517787 357.398653 
L 73.700395 362.759695 
L 71.587352 367.191154 
L 69.474308 372.071037 
L 67.361265 377.535743 
L 65.248221 383.814108 
L 63.839526 388.653811 
L 62.43083 394.294936 
L 61.022134 401.289183 
L 60.317787 405.72474 
L 59.613439 411.527501 
L 58.909091 425.596838 
L 58.909091 425.596838 
L 59.67747 440.945205 
L 60.44585 447.27549 
L 61.214229 452.114279 
L 62.750988 459.744367 
L 64.287747 465.898322 
L 65.824506 471.177998 
L 68.129644 478.027124 
L 70.434783 483.988621 
L 72.739921 489.312129 
L 75.045059 494.146448 
L 78.118577 499.994858 
L 81.192095 505.297457 
L 84.265613 510.156987 
L 87.33913 514.646016 
L 91.181028 519.816577 
L 95.022925 524.568764 
L 98.864822 528.960297 
L 102.706719 533.03541 
L 106.548617 536.828886 
L 111.158893 541.048247 
L 115.76917 544.940786 
L 120.379447 548.537549 
L 124.989723 551.863817 
L 129.6 554.940458 
L 134.978656 558.237471 
L 140.357312 561.241384 
L 145.735968 563.971289 
L 151.114625 566.443117 
L 156.493281 568.670246 
L 161.871937 570.663947 
L 167.250593 572.433728 
L 172.629249 573.987601 
L 178.007905 575.332287 
L 183.386561 576.473381 
L 189.533597 577.534038 
L 195.680632 578.340159 
L 201.827668 578.895759 
L 207.974704 579.203558 
L 214.121739 579.265043 
L 220.268775 579.080512 
L 226.41581 578.649074 
L 232.562846 577.968633 
L 238.709881 577.035831 
L 244.088538 576.008955 
L 249.467194 574.781225 
L 254.84585 573.347634 
L 260.224506 571.702124 
L 265.603162 569.83744 
L 270.981818 567.744959 
L 276.360474 565.414452 
L 281.73913 562.833795 
L 287.117787 559.988578 
L 292.496443 556.861598 
L 297.106719 553.941509 
L 301.716996 550.783749 
L 306.327273 547.36983 
L 310.937549 543.677535 
L 315.547826 539.67984 
L 320.158103 535.343374 
L 324 531.440932 
L 327.841897 527.243884 
L 331.683794 522.714042 
L 335.525692 517.802372 
L 338.599209 513.555311 
L 341.672727 508.979285 
L 344.746245 504.016727 
L 347.819763 498.588841 
L 350.124901 494.146448 
L 352.43004 489.312129 
L 354.735178 483.988621 
L 357.040316 478.027124 
L 358.577075 473.582119 
L 360.113834 468.626087 
L 361.650593 462.956202 
L 363.187352 456.177954 
L 363.955731 452.114279 
L 364.724111 447.27549 
L 365.49249 440.945205 
L 367.093281 408.96944 
L 367.925692 402.111632 
L 368.758103 396.86961 
L 370.422925 388.603681 
L 372.087747 381.936897 
L 373.752569 376.217248 
L 375.417391 371.145446 
L 377.914625 364.404716 
L 380.411858 358.42895 
L 382.909091 353.028924 
L 385.406324 348.084214 
L 388.735968 342.060748 
L 392.065613 336.56776 
L 395.395257 331.512291 
L 398.724901 326.827134 
L 402.054545 322.461812 
L 406.216601 317.396206 
L 410.378656 312.710725 
L 414.540711 308.359784 
L 418.702767 304.307376 
L 422.864822 300.524478 
L 427.859289 296.307561 
L 432.853755 292.411067 
L 437.848221 288.807611 
L 442.842688 285.474583 
L 447.837154 282.3931 
L 452.831621 279.547238 
L 458.658498 276.506927 
L 464.485375 273.750821 
L 470.312253 271.263696 
L 476.13913 269.03273 
L 481.966008 267.047111 
L 487.792885 265.29772 
L 493.619763 263.776897 
L 499.44664 262.478248 
L 505.273518 261.396502 
L 511.100395 260.527394 
L 516.927273 259.867578 
L 522.75415 259.414563 
L 528.581028 259.166658 
L 534.407905 259.122949 
L 540.234783 259.283273 
L 546.06166 259.648223 
L 551.888538 260.219152 
L 557.715415 260.998205 
L 563.542292 261.988354 
L 569.36917 263.19346 
L 575.196047 264.618351 
L 581.022925 266.268924 
L 586.849802 268.152275 
L 592.67668 270.276873 
L 598.503557 272.652772 
L 604.330435 275.291886 
L 610.157312 278.208356 
L 615.151779 280.941612 
L 620.146245 283.903455 
L 625.140711 287.108551 
L 630.135178 290.57422 
L 635.129644 294.3211 
L 640.124111 298.374032 
L 645.118577 302.763309 
L 649.280632 306.704757 
L 653.442688 310.932402 
L 657.604743 315.479204 
L 661.766798 320.386533 
L 665.928854 325.70751 
L 669.258498 330.308492 
L 672.588142 335.265853 
L 675.917787 340.641958 
L 679.247431 346.522168 
L 681.744664 351.33476 
L 684.241897 356.571939 
L 686.73913 362.339073 
L 689.236364 368.797362 
L 690.901186 373.612783 
L 692.566008 378.981818 
L 694.23083 385.124193 
L 695.895652 392.467296 
L 696.728063 396.86961 
L 697.560474 402.111632 
L 698.392885 408.96944 
L 700.121739 443.503267 
L 701.018182 450.888599 
L 701.914625 456.533853 
L 703.70751 465.435622 
L 705.500395 472.615236 
L 707.293281 478.774858 
L 709.086166 484.236799 
L 711.775494 491.496047 
L 714.464822 497.931487 
L 717.15415 503.7469 
L 719.843478 509.071971 
L 722.532806 513.99536 
L 726.118577 520.042936 
L 729.704348 525.597421 
L 733.290119 530.736993 
L 736.875889 535.519867 
L 740.46166 539.990793 
L 744.943874 545.19385 
L 749.426087 550.018433 
L 753.9083 554.507042 
L 758.390514 558.693674 
L 762.872727 562.606013 
L 767.354941 566.266949 
L 772.733597 570.354985 
L 778.112253 574.136066 
L 783.490909 577.633095 
L 788.869565 580.865266 
L 794.248221 583.848809 
L 799.626877 586.597545 
L 805.005534 589.123317 
L 810.38419 591.436312 
L 816.659289 593.877541 
L 822.934387 596.053005 
L 829.209486 597.972767 
L 835.484585 599.645289 
L 841.759684 601.077641 
L 848.034783 602.275663 
L 854.309881 603.244096 
L 860.58498 603.98668 
L 866.860079 604.506228 
L 873.135178 604.804677 
L 879.410277 604.883134 
L 885.685375 604.741887 
L 891.960474 604.380415 
L 898.235573 603.797379 
L 904.510672 602.990592 
L 910.785771 601.956986 
L 917.06087 600.692542 
L 923.335968 599.192218 
L 929.611067 597.449835 
L 935.886166 595.457944 
L 942.161265 593.20765 
L 948.436364 590.688387 
L 953.81502 588.305507 
L 959.193676 585.706622 
L 964.572332 582.881022 
L 969.950988 579.816248 
L 975.329644 576.497728 
L 980.7083 572.908313 
L 986.086957 569.027668 
L 991.465613 564.831444 
L 995.947826 561.072434 
L 1000.43004 557.053365 
L 1004.912253 552.749578 
L 1009.394466 548.131077 
L 1013.87668 543.160777 
L 1018.358893 537.791932 
L 1021.944664 533.16996 
L 1025.530435 528.215057 
L 1029.116206 522.87636 
L 1032.701976 517.086709 
L 1035.391304 512.394528 
L 1038.080632 507.345334 
L 1040.76996 501.868255 
L 1043.459289 495.863307 
L 1046.148617 489.181108 
L 1047.941502 484.236799 
L 1049.734387 478.774858 
L 1051.527273 472.615236 
L 1053.320158 465.435622 
L 1054.216601 461.274806 
L 1055.113043 456.533853 
L 1056.009486 450.888599 
L 1056.905929 443.503267 
L 1057.802372 425.596838 
L 1057.802372 425.596838 
L 1056.841897 406.411379 
L 1055.881423 398.498523 
L 1054.920949 392.450036 
L 1053.960474 387.370443 
L 1052.039526 378.897633 
L 1050.118577 371.810277 
L 1048.197628 365.615237 
L 1046.27668 360.058981 
L 1043.395257 352.60711 
L 1040.513834 345.952724 
L 1037.632411 339.909825 
L 1034.750988 334.356834 
L 1031.869565 329.209042 
L 1028.027668 322.870979 
L 1024.185771 317.037745 
L 1020.343874 311.631795 
L 1016.501976 306.594885 
L 1012.660079 301.881931 
L 1007.857708 296.392515 
L 1003.055336 291.298623 
L 998.252964 286.556778 
L 993.450593 282.132067 
L 988.648221 277.995966 
L 983.84585 274.124832 
L 979.043478 270.498823 
L 973.280632 266.447665 
L 967.517787 262.700848 
L 961.754941 259.237808 
L 955.992095 256.041155 
L 950.229249 253.09608 
L 944.466403 250.389896 
L 938.703557 247.911687 
L 932.940711 245.652034 
L 927.177866 243.602796 
L 920.454545 241.468627 
L 913.731225 239.601788 
L 907.007905 237.994297 
L 900.284585 236.639537 
L 893.561265 235.532101 
L 886.837945 234.667687 
L 880.114625 234.043005 
L 873.391304 233.655714 
L 866.667984 233.504377 
L 859.944664 233.588438 
L 853.221344 233.908206 
L 846.498024 234.464864 
L 839.774704 235.26049 
L 833.051383 236.298097 
L 826.328063 237.581692 
L 819.604743 239.116354 
L 812.881423 240.908342 
L 806.158103 242.965231 
L 800.395257 244.945944 
L 794.632411 247.134612 
L 788.869565 249.538989 
L 783.106719 252.168048 
L 777.343874 255.032177 
L 771.581028 258.143438 
L 765.818182 261.515888 
L 760.055336 265.165999 
L 754.29249 269.113199 
L 749.490119 272.646016 
L 744.687747 276.416903 
L 739.885375 280.444413 
L 735.083004 284.750559 
L 730.280632 289.361759 
L 725.478261 294.310153 
L 720.675889 299.635475 
L 716.833992 304.200332 
L 712.992095 309.070283 
L 709.150198 314.285366 
L 705.3083 319.896651 
L 701.466403 325.971064 
L 698.58498 330.884136 
L 695.703557 336.159195 
L 692.822134 341.864629 
L 689.940711 348.095429 
L 687.059289 354.990543 
L 685.13834 360.058981 
L 683.217391 365.615237 
L 681.296443 371.810277 
L 679.375494 378.897633 
L 677.454545 387.370443 
L 676.494071 392.450036 
L 675.533597 398.498523 
L 674.573123 406.411379 
L 672.588142 446.061328 
L 671.563636 454.501707 
L 670.53913 460.953427 
L 669.514625 466.371659 
L 667.465613 475.409323 
L 665.416601 482.96917 
L 663.367589 489.577213 
L 661.318577 495.503886 
L 659.269565 500.910219 
L 656.196047 508.265008 
L 653.12253 514.911194 
L 650.049012 520.99699 
L 646.975494 526.62372 
L 643.901976 531.86433 
L 639.803953 538.343704 
L 635.705929 544.329075 
L 631.607905 549.891829 
L 627.509881 555.086444 
L 623.411858 559.955625 
L 619.313834 564.533592 
L 614.191304 569.888596 
L 609.068775 574.876176 
L 603.946245 579.53205 
L 598.823715 583.885491 
L 593.701186 587.960827 
L 588.578656 591.778521 
L 583.456126 595.355956 
L 577.309091 599.35256 
L 571.162055 603.04647 
L 565.01502 606.456233 
L 558.867984 609.597646 
L 552.720949 612.484243 
L 546.573913 615.127666 
L 540.426877 617.537962 
L 534.279842 619.723816 
L 528.132806 621.692732 
L 521.985771 623.451188 
L 515.838735 625.004752 
L 509.6917 626.358179 
L 503.544664 627.515495 
L 496.373123 628.622276 
L 489.201581 629.470944 
L 482.03004 630.064712 
L 474.858498 630.405797 
L 467.686957 630.495462 
L 460.515415 630.334037 
L 453.343874 629.920926 
L 446.172332 629.254599 
L 439.000791 628.332557 
L 431.829249 627.151293 
L 425.682213 625.929011 
L 419.535178 624.509354 
L 413.388142 622.88806 
L 407.241107 621.060111 
L 401.094071 619.01965 
L 394.947036 616.759871 
L 388.8 614.272894 
L 382.652964 611.549603 
L 376.505929 608.579448 
L 370.358893 605.350191 
L 364.211858 601.847593 
L 358.064822 598.054998 
L 352.942292 594.658943 
L 347.819763 591.03472 
L 342.697233 587.166977 
L 337.574704 583.037768 
L 332.452174 578.625927 
L 327.329644 573.906236 
L 322.207115 568.848267 
L 317.084585 563.414783 
L 312.986561 558.766846 
L 308.888538 553.819802 
L 304.790514 548.537549 
L 300.69249 542.874802 
L 296.594466 536.773434 
L 293.520949 531.86433 
L 290.447431 526.62372 
L 287.373913 520.99699 
L 284.300395 514.911194 
L 281.226877 508.265008 
L 278.15336 500.910219 
L 276.104348 495.503886 
L 274.055336 489.577213 
L 272.006324 482.96917 
L 269.957312 475.409323 
L 267.9083 466.371659 
L 266.883794 460.953427 
L 265.859289 454.501707 
L 264.834783 446.061328 
L 263.810277 425.596838 
L 263.810277 425.596838 
L 264.898814 403.853317 
L 265.987352 394.885414 
L 267.075889 388.030462 
L 268.164427 382.27359 
L 270.341502 372.671072 
L 272.518577 364.638735 
L 274.695652 357.61769 
L 276.872727 351.3206 
L 279.049802 345.57637 
L 282.315415 337.761907 
L 285.581028 330.700334 
L 288.84664 324.234176 
L 292.112253 318.255775 
L 295.377866 312.687628 
L 298.643478 307.471704 
L 302.997628 300.989001 
L 307.351779 294.972332 
L 311.705929 289.359938 
L 316.060079 284.103704 
L 320.414229 279.165271 
L 324.768379 274.513473 
L 330.211067 269.063019 
L 335.653755 263.979252 
L 341.096443 259.228554 
L 346.53913 254.783132 
L 351.981818 250.619717 
L 357.424506 246.718618 
L 362.867194 243.063015 
L 368.309881 239.638428 
L 374.841107 235.816318 
L 381.372332 232.290222 
L 387.903557 229.044209 
L 394.434783 226.064609 
L 400.966008 223.339648 
L 407.497233 220.859158 
L 414.028458 218.61435 
L 420.559684 216.597628 
L 427.090909 214.802448 
L 433.622134 213.22319 
L 440.15336 211.855068 
L 446.684585 210.694051 
L 453.21581 209.736795 
L 459.747036 208.980601 
L 466.278261 208.423366 
L 472.809486 208.063564 
L 479.340711 207.900214 
L 485.871937 207.932874 
L 492.403162 208.161633 
L 498.934387 208.58711 
L 505.465613 209.210467 
L 511.996838 210.03342 
L 518.528063 211.058265 
L 525.059289 212.287913 
L 531.590514 213.72593 
L 538.121739 215.376591 
L 544.652964 217.24495 
L 551.18419 219.336924 
L 557.715415 221.659393 
L 564.24664 224.220333 
L 570.777866 227.02897 
L 577.309091 230.095979 
L 583.840316 233.433731 
L 590.371542 237.056604 
L 595.814229 240.305492 
L 601.256917 243.775221 
L 606.699605 247.478697 
L 612.142292 251.43083 
L 617.58498 255.648968 
L 623.027668 260.153454 
L 628.470356 264.968378 
L 633.913043 270.122578 
L 639.355731 275.651037 
L 643.709881 280.371894 
L 648.064032 285.38661 
L 652.418182 290.727958 
L 656.772332 296.436456 
L 661.126482 302.563199 
L 665.480632 309.174198 
L 668.746245 314.501995 
L 672.011858 320.199643 
L 675.27747 326.330808 
L 678.543083 332.981545 
L 681.808696 340.273268 
L 683.985771 345.57637 
L 686.162846 351.3206 
L 688.339921 357.61769 
L 690.516996 364.638735 
L 692.694071 372.671072 
L 693.782609 377.221171 
L 694.871146 382.27359 
L 695.959684 388.030462 
L 697.048221 394.885414 
L 698.136759 403.853317 
L 699.225296 425.596838 
L 699.225296 425.596838 
L 698.072727 448.619389 
L 696.920158 458.114816 
L 695.767589 465.373 
L 694.61502 471.468512 
L 693.462451 476.818132 
L 691.157312 486.049063 
L 688.852174 493.968578 
L 686.547036 500.991073 
L 684.241897 507.348042 
L 681.936759 513.184512 
L 678.479051 521.169775 
L 675.021344 528.421254 
L 671.563636 535.084843 
L 668.105929 541.262193 
L 664.648221 547.027535 
L 661.190514 552.437062 
L 656.580237 559.170605 
L 651.96996 565.428703 
L 647.359684 571.272645 
L 642.749407 576.750473 
L 638.13913 581.900686 
L 633.528854 586.754696 
L 628.918577 591.338529 
L 623.155731 596.721341 
L 617.392885 601.751492 
L 611.63004 606.458409 
L 605.867194 610.86673 
L 600.104348 614.997306 
L 594.341502 618.867945 
L 588.578656 622.493977 
L 582.81581 625.888689 
L 577.052964 629.063657 
L 570.137549 632.597747 
L 563.222134 635.845169 
L 556.306719 638.819019 
L 549.391304 641.530603 
L 542.475889 643.989688 
L 535.560474 646.204719 
L 528.645059 648.182982 
L 521.729644 649.930741 
L 514.814229 651.453347 
L 507.898814 652.755327 
L 500.983399 653.840457 
L 494.067984 654.711819 
L 487.152569 655.371844 
L 480.237154 655.822349 
L 473.321739 656.064565 
L 466.406324 656.099146 
L 459.490909 655.926187 
L 452.575494 655.54522 
L 445.660079 654.955207 
L 438.744664 654.15453 
L 431.829249 653.140966 
L 424.913834 651.911653 
L 417.998419 650.463053 
L 411.083004 648.790898 
L 404.167589 646.890119 
L 397.252174 644.754767 
L 390.336759 642.377911 
L 383.421344 639.751509 
L 376.505929 636.866257 
L 369.590514 633.711386 
L 362.675099 630.274431 
L 356.912253 627.184448 
L 351.149407 623.878937 
L 345.386561 620.346925 
L 339.623715 616.575845 
L 333.86087 612.551231 
L 328.098024 608.256326 
L 322.335178 603.671572 
L 316.572332 598.773951 
L 310.809486 593.536093 
L 306.199209 589.078933 
L 301.588933 584.36298 
L 296.978656 579.364425 
L 292.368379 574.054727 
L 287.758103 568.399181 
L 283.147826 562.354889 
L 278.537549 555.86775 
L 275.079842 550.670509 
L 271.622134 545.147766 
L 268.164427 539.252081 
L 264.706719 532.92201 
L 261.249012 526.075489 
L 257.791304 518.598529 
L 255.486166 513.184512 
L 253.181028 507.348042 
L 250.875889 500.991073 
L 248.570751 493.968578 
L 246.265613 486.049063 
L 243.960474 476.818132 
L 242.807905 471.468512 
L 241.655336 465.373 
L 240.502767 458.114816 
L 239.350198 448.619389 
L 238.197628 425.596838 
L 238.197628 425.596838 
L 239.414229 401.295256 
L 240.63083 391.272306 
L 241.847431 383.610889 
L 243.064032 377.176738 
L 244.280632 371.529916 
L 246.713834 361.786155 
L 249.147036 353.426668 
L 251.580237 346.014034 
L 254.013439 339.3039 
L 256.44664 333.143182 
L 258.879842 327.428386 
L 262.529644 319.53604 
L 266.179447 312.309157 
L 269.829249 305.627415 
L 273.479051 299.404192 
L 277.128854 293.57463 
L 280.778656 288.088653 
L 285.645059 281.241117 
L 290.511462 274.861031 
L 295.377866 268.891289 
L 300.244269 263.286607 
L 305.110672 258.010355 
L 309.977075 253.032405 
L 314.843478 248.327624 
L 320.926482 242.798774 
L 327.009486 237.629063 
L 333.09249 232.789601 
L 339.175494 228.256089 
L 345.258498 224.007886 
L 351.341502 220.027302 
L 357.424506 216.299067 
L 363.50751 212.809917 
L 369.590514 209.548267 
L 375.673518 206.503958 
L 382.973123 203.125158 
L 390.272727 200.033014 
L 397.572332 197.215884 
L 404.871937 194.663702 
L 412.171542 192.367771 
L 419.471146 190.320588 
L 426.770751 188.51571 
L 434.070356 186.947638 
L 441.36996 185.611731 
L 448.669565 184.50413 
L 455.96917 183.6217 
L 463.268775 182.961983 
L 470.568379 182.523166 
L 477.867984 182.304055 
L 485.167589 182.304055 
L 492.467194 182.523166 
L 499.766798 182.961983 
L 507.066403 183.6217 
L 514.366008 184.50413 
L 521.665613 185.611731 
L 528.965217 186.947638 
L 536.264822 188.51571 
L 543.564427 190.320588 
L 550.864032 192.367771 
L 558.163636 194.663702 
L 565.463241 197.215884 
L 572.762846 200.033014 
L 580.062451 203.125158 
L 587.362055 206.503958 
L 593.445059 209.548267 
L 599.528063 212.809917 
L 605.611067 216.299067 
L 611.694071 220.027302 
L 617.777075 224.007886 
L 623.860079 228.256089 
L 629.943083 232.789601 
L 636.026087 237.629063 
L 642.109091 242.798774 
L 646.975494 247.191551 
L 651.841897 251.831489 
L 656.7083 256.738959 
L 661.574704 261.938028 
L 666.441107 267.457453 
L 671.30751 273.332068 
L 676.173913 279.604743 
L 681.040316 286.329256 
L 684.690119 291.709935 
L 688.339921 297.419991 
L 691.989723 303.50563 
L 695.639526 310.026166 
L 699.289328 317.059955 
L 702.93913 324.714293 
L 705.372332 330.235201 
L 707.805534 336.162198 
L 710.238735 342.582219 
L 712.671937 349.620143 
L 715.105138 357.467194 
L 717.53834 366.444511 
L 718.754941 371.529916 
L 719.971542 377.176738 
L 721.188142 383.610889 
L 722.404743 391.272306 
L 723.621344 401.295256 
L 724.837945 425.596838 
L 724.837945 425.596838 
L 723.557312 451.17745 
L 722.27668 461.727925 
L 720.996047 469.792574 
L 719.715415 476.565364 
L 718.434783 482.509387 
L 715.873518 492.765977 
L 713.312253 501.565438 
L 710.750988 509.368211 
L 708.189723 516.431509 
L 705.628458 522.916476 
L 703.067194 528.93205 
L 699.225296 537.239783 
L 695.383399 544.847029 
L 691.541502 551.880441 
L 687.699605 558.431203 
L 683.857708 564.567584 
L 680.01581 570.342295 
L 676.173913 575.797059 
L 671.051383 582.629737 
L 665.928854 589.016774 
L 660.806324 595.008582 
L 655.683794 600.645751 
L 650.561265 605.961536 
L 645.438735 610.983585 
L 640.316206 615.735175 
L 635.193676 620.236113 
L 628.790514 625.535509 
L 622.387352 630.498024 
L 615.98419 635.147592 
L 609.581028 639.504623 
L 603.177866 643.586657 
L 596.774704 647.408878 
L 590.371542 650.984504 
L 583.968379 654.3251 
L 577.565217 657.440826 
L 571.162055 660.340636 
L 564.758893 663.032442 
L 557.075099 665.997842 
L 549.391304 668.684349 
L 541.70751 671.101119 
L 534.023715 673.256048 
L 526.339921 675.15592 
L 518.656126 676.806522 
L 510.972332 678.21274 
L 503.288538 679.378635 
L 495.604743 680.30751 
L 487.920949 681.001949 
L 480.237154 681.463861 
L 472.55336 681.694504 
L 464.869565 681.694504 
L 457.185771 681.463861 
L 449.501976 681.001949 
L 441.818182 680.30751 
L 434.134387 679.378635 
L 426.450593 678.21274 
L 418.766798 676.806522 
L 411.083004 675.15592 
L 403.399209 673.256048 
L 395.715415 671.101119 
L 388.031621 668.684349 
L 380.347826 665.997842 
L 372.664032 663.032442 
L 366.26087 660.340636 
L 359.857708 657.440826 
L 353.454545 654.3251 
L 347.051383 650.984504 
L 340.648221 647.408878 
L 334.245059 643.586657 
L 327.841897 639.504623 
L 321.438735 635.147592 
L 315.035573 630.498024 
L 308.632411 625.535509 
L 302.229249 620.236113 
L 297.106719 615.735175 
L 291.98419 610.983585 
L 286.86166 605.961536 
L 281.73913 600.645751 
L 276.616601 595.008582 
L 271.494071 589.016774 
L 266.371542 582.629737 
L 261.249012 575.797059 
L 257.407115 570.342295 
L 253.565217 564.567584 
L 249.72332 558.431203 
L 245.881423 551.880441 
L 242.039526 544.847029 
L 238.197628 537.239783 
L 234.355731 528.93205 
L 231.794466 522.916476 
L 229.233202 516.431509 
L 226.671937 509.368211 
L 224.110672 501.565438 
L 221.549407 492.765977 
L 220.268775 487.862445 
L 218.988142 482.509387 
L 217.70751 476.565364 
L 216.426877 469.792574 
L 215.146245 461.727925 
L 213.865613 451.17745 
L 212.58498 425.596838 
L 212.58498 425.596838 
"/>

</svg>
