
<svg height="864pt" version="1.1" viewBox="0 0 1296 864" width="1296pt" xmlns="http://www.w3.org/2000/svg" xmlns:xlink="http://www.w3.org/1999/xlink">
<link xmlns="http://www.w3.org/1999/xhtml" rel="stylesheet" href="styles.css" type="text/css"/>
    <path class='path' fill="#FFFFFF" stroke="#000000" stroke-linecap="square" stroke-width="7" d="M 199.168831 439.012987 
L 198.958442 436.592744 
L 198.537662 434.852802 
L 197.906494 433.197702 
L 197.064935 431.624347 
L 196.012987 430.149115 
L 194.820779 428.860856 
L 193.488312 427.739951 
L 192.015584 426.786231 
L 190.402597 426.010561 
L 188.719481 425.450697 
L 186.966234 425.106037 
L 185.212987 424.987188 
L 183.45974 425.088366 
L 181.706494 425.414481 
L 180.023377 425.9547 
L 178.41039 426.708442 
L 176.937662 427.637455 
L 175.605195 428.728973 
L 174.412987 429.979835 
L 173.361039 431.402684 
L 172.519481 432.899207 
L 171.888312 434.425507 
L 171.397403 436.221853 
L 171.187013 437.612144 
L 170.836364 442.970201 
L 170.275325 445.832553 
L 169.574026 448.187947 
L 168.592208 450.643556 
L 167.47013 452.844048 
L 166.067532 455.068899 
L 164.524675 457.079291 
L 162.841558 458.907633 
L 161.018182 460.5674 
L 159.054545 462.061721 
L 156.950649 463.387128 
L 154.706494 464.53525 
L 152.322078 465.493491 
L 149.937662 466.209998 
L 147.553247 466.703542 
L 145.028571 466.996123 
L 142.503896 467.059324 
L 139.979221 466.894704 
L 137.454545 466.498171 
L 135.07013 465.901551 
L 132.685714 465.074138 
L 130.441558 464.064178 
L 128.197403 462.800973 
L 126.093506 461.348663 
L 124.12987 459.710212 
L 122.306494 457.88092 
L 120.763636 456.029563 
L 119.361039 454.014224 
L 118.098701 451.803568 
L 117.116883 449.671804 
L 116.275325 447.333357 
L 115.714286 445.246266 
L 115.293506 442.970201 
L 115.153247 441.814673 
L 115.012987 439.012987 
L 115.012987 439.012987 
L 115.223377 434.810458 
L 115.644156 431.752259 
L 116.275325 428.783637 
L 117.116883 425.87416 
L 118.168831 423.024761 
L 119.431169 420.243451 
L 120.903896 417.540874 
L 122.587013 414.929119 
L 124.480519 412.421371 
L 126.584416 410.031866 
L 128.688312 407.96715 
L 131.002597 405.998573 
L 133.527273 404.15174 
L 136.051948 402.572438 
L 138.787013 401.124745 
L 141.522078 399.921261 
L 144.467532 398.873208 
L 147.412987 398.063148 
L 150.358442 397.477154 
L 153.303896 397.105827 
L 156.45974 396.939799 
L 159.615584 397.010873 
L 162.561039 397.292138 
L 165.506494 397.785212 
L 168.451948 398.497825 
L 171.397403 399.441839 
L 174.132468 400.540441 
L 176.867532 401.872218 
L 179.602597 403.463368 
L 182.127273 405.19388 
L 184.441558 407.036535 
L 186.755844 409.171017 
L 188.85974 411.42145 
L 190.753247 413.766234 
L 192.436364 416.182079 
L 193.909091 418.642101 
L 195.381818 421.567133 
L 196.433766 424.090148 
L 197.485714 427.231169 
L 198.116883 429.663068 
L 198.748052 433.077166 
L 198.958442 434.810458 
L 199.168831 439.012987 
L 199.168831 439.012987 
L 198.888312 444.616359 
L 198.327273 448.693958 
L 197.485714 452.65212 
L 196.363636 456.531423 
L 195.241558 459.634508 
L 193.838961 462.880233 
L 192.155844 466.174169 
L 190.192208 469.454198 
L 188.228571 472.298015 
L 185.984416 475.145595 
L 183.74026 477.654482 
L 181.215584 480.149043 
L 178.41039 482.583 
L 175.605195 484.716145 
L 172.519481 486.763138 
L 169.433766 488.534012 
L 166.348052 490.057513 
L 162.981818 491.462629 
L 159.615584 492.620106 
L 156.249351 493.545714 
L 152.883117 494.251112 
L 149.516883 494.744661 
L 145.87013 495.046709 
L 142.223377 495.110571 
L 138.576623 494.937062 
L 134.92987 494.523958 
L 131.563636 493.925347 
L 128.197403 493.11108 
L 124.831169 492.071228 
L 121.464935 490.792203 
L 118.379221 489.394161 
L 115.293506 487.761268 
L 112.207792 485.868978 
L 109.402597 483.896104 
L 106.597403 481.648257 
L 104.072727 479.352235 
L 101.548052 476.748853 
L 99.303896 474.121656 
L 97.05974 471.124811 
L 95.096104 468.110038 
L 93.412987 465.134457 
L 92.01039 462.274125 
L 90.607792 458.910105 
L 89.485714 455.653728 
L 88.644156 452.65212 
L 87.802597 448.693958 
L 87.241558 444.616359 
L 86.961039 439.012987 
L 86.961039 439.012987 
L 87.311688 432.008772 
L 88.012987 426.911774 
L 88.714286 423.429789 
L 89.766234 419.376623 
L 91.168831 415.086468 
L 92.571429 411.527803 
L 94.324675 407.730427 
L 96.077922 404.435334 
L 98.181818 400.961473 
L 100.285714 397.886736 
L 102.74026 394.693628 
L 105.194805 391.843155 
L 108 388.930242 
L 110.805195 386.326828 
L 113.961039 383.713683 
L 117.116883 381.391151 
L 120.272727 379.325298 
L 123.779221 377.299697 
L 127.285714 375.531895 
L 130.792208 374.000857 
L 134.649351 372.570718 
L 138.506494 371.390371 
L 142.363636 370.446916 
L 146.220779 369.730674 
L 150.077922 369.234647 
L 153.935065 368.954159 
L 157.792208 368.886623 
L 161.649351 369.031423 
L 165.506494 369.389883 
L 169.363636 369.965331 
L 173.220779 370.763255 
L 177.077922 371.791577 
L 180.935065 373.061073 
L 184.441558 374.436361 
L 187.948052 376.03652 
L 191.454545 377.879206 
L 194.961039 379.987129 
L 198.116883 382.135328 
L 201.272727 384.550471 
L 204.428571 387.269926 
L 207.233766 389.98348 
L 210.038961 393.027093 
L 212.493506 396.015884 
L 214.948052 399.380302 
L 217.051948 402.641673 
L 219.155844 406.361149 
L 220.909091 409.936564 
L 222.311688 413.236086 
L 223.714286 417.114942 
L 224.766234 420.621437 
L 225.818182 425.057319 
L 226.519481 429.119951 
L 226.87013 432.008772 
L 227.220779 439.012987 
L 227.220779 439.012987 
L 226.8 447.418045 
L 225.958442 453.534443 
L 225.116883 457.712825 
L 223.854545 462.576623 
L 222.592208 466.537867 
L 220.909091 470.989439 
L 219.225974 474.813856 
L 217.122078 478.984798 
L 215.018182 482.658564 
L 212.493506 486.572209 
L 209.968831 490.062716 
L 207.444156 493.211899 
L 204.498701 496.529058 
L 201.553247 499.521858 
L 198.187013 502.603573 
L 194.820779 505.372151 
L 191.454545 507.865378 
L 187.667532 510.376944 
L 183.880519 512.608464 
L 180.093506 514.584748 
L 176.306494 516.325372 
L 172.098701 518.001888 
L 167.890909 519.423665 
L 163.683117 520.60402 
L 159.475325 521.553312 
L 155.267532 522.279443 
L 151.05974 522.788217 
L 146.851948 523.08358 
L 142.644156 523.167779 
L 138.436364 523.041449 
L 134.228571 522.703636 
L 130.020779 522.151763 
L 125.812987 521.381527 
L 121.605195 520.386728 
L 117.397403 519.159003 
L 113.18961 517.68745 
L 108.981818 515.958079 
L 105.194805 514.166559 
L 101.407792 512.135409 
L 97.620779 509.844017 
L 93.833766 507.266178 
L 90.467532 504.707122 
L 87.101299 501.86422 
L 84.155844 499.112281 
L 81.21039 496.076297 
L 78.264935 492.708109 
L 75.74026 489.506494 
L 73.215584 485.952036 
L 71.111688 482.658564 
L 69.007792 478.984798 
L 66.903896 474.813856 
L 65.220779 470.989439 
L 63.537662 466.537867 
L 62.275325 462.576623 
L 61.012987 457.712825 
L 60.171429 453.534443 
L 59.750649 450.88463 
L 59.32987 447.418045 
L 58.909091 439.012987 
L 58.909091 439.012987 
L 59.4 429.207086 
L 59.890909 425.162737 
L 60.872727 419.475052 
L 61.854545 415.144504 
L 63.327273 409.89169 
L 64.8 405.51586 
L 66.763636 400.53373 
L 68.727273 396.216525 
L 70.690909 392.379207 
L 73.145455 388.093147 
L 75.6 384.250763 
L 78.545455 380.103896 
L 81.490909 376.368678 
L 84.436364 372.975222 
L 87.872727 369.381724 
L 91.309091 366.126625 
L 94.745455 363.166341 
L 98.672727 360.101737 
L 102.6 357.340407 
L 106.527273 354.852497 
L 110.454545 352.614382 
L 114.872727 350.371605 
L 119.290909 348.39936 
L 123.709091 346.680308 
L 128.127273 345.200529 
L 132.545455 343.94885 
L 136.963636 342.916357 
L 141.381818 342.096044 
L 145.8 341.482557 
L 150.218182 341.07201 
L 155.127273 340.850807 
L 160.036364 340.875361 
L 164.945455 341.145855 
L 169.363636 341.601234 
L 173.781818 342.260297 
L 178.2 343.127244 
L 182.618182 344.207777 
L 187.036364 345.509302 
L 191.454545 347.041198 
L 195.872727 348.815204 
L 200.290909 350.845933 
L 204.218182 352.881172 
L 208.145455 355.149391 
L 212.072727 357.670076 
L 216 360.467532 
L 219.436364 363.166341 
L 222.872727 366.126625 
L 226.309091 369.381724 
L 229.745455 372.975222 
L 232.690909 376.368678 
L 235.636364 380.103896 
L 238.581818 384.250763 
L 241.036364 388.093147 
L 243.490909 392.379207 
L 245.454545 396.216525 
L 247.418182 400.53373 
L 248.890909 404.19303 
L 250.363636 408.355724 
L 251.836364 413.264817 
L 252.818182 417.19651 
L 253.8 422.071288 
L 254.290909 425.162737 
L 254.781818 429.207086 
L 255.833766 450.219731 
L 256.394805 454.841844 
L 257.516883 461.342056 
L 258.638961 466.291253 
L 259.761039 470.431169 
L 261.444156 475.712827 
L 263.127273 480.256029 
L 265.371429 485.535263 
L 267.615584 490.175311 
L 269.85974 494.337232 
L 272.664935 499.017933 
L 275.47013 503.236634 
L 278.275325 507.079292 
L 281.641558 511.278203 
L 285.007792 515.0974 
L 288.374026 518.591573 
L 291.74026 521.801885 
L 295.667532 525.230639 
L 299.594805 528.355689 
L 303.522078 531.207924 
L 307.449351 533.811971 
L 311.937662 536.509549 
L 316.425974 538.933065 
L 320.914286 541.102039 
L 325.402597 543.032394 
L 329.890909 544.737203 
L 334.379221 546.227224 
L 339.428571 547.657715 
L 344.477922 548.837707 
L 349.527273 549.775208 
L 354.576623 550.476336 
L 359.625974 550.945533 
L 364.675325 551.185709 
L 369.724675 551.198335 
L 374.774026 550.983489 
L 379.823377 550.539856 
L 384.872727 549.864689 
L 389.922078 548.953721 
L 394.971429 547.801031 
L 400.020779 546.398834 
L 404.509091 544.935003 
L 408.997403 543.257589 
L 413.485714 541.35609 
L 417.974026 539.21775 
L 422.462338 536.827037 
L 426.950649 534.16493 
L 430.877922 531.594616 
L 434.805195 528.779221 
L 438.732468 525.694868 
L 442.65974 522.311687 
L 446.025974 519.145379 
L 449.392208 515.701082 
L 452.758442 511.93942 
L 456.124675 507.808352 
L 458.92987 504.033022 
L 461.735065 499.895409 
L 464.54026 495.3157 
L 466.784416 491.255928 
L 469.028571 486.74748 
L 471.272727 481.648257 
L 472.955844 477.295418 
L 474.638961 472.294469 
L 475.761039 468.439467 
L 476.883117 463.946104 
L 478.005195 458.374928 
L 478.566234 454.841844 
L 479.127273 450.219731 
L 480.319481 426.405399 
L 480.950649 421.205523 
L 482.212987 413.892785 
L 483.475325 408.324938 
L 484.737662 403.667532 
L 486.631169 397.725668 
L 488.524675 392.614565 
L 490.418182 388.083489 
L 492.942857 382.704378 
L 495.467532 377.900328 
L 497.992208 373.544622 
L 501.148052 368.604414 
L 504.303896 364.121673 
L 507.45974 360.018482 
L 510.615584 356.238377 
L 514.402597 352.069624 
L 518.18961 348.24968 
L 521.976623 344.736137 
L 525.763636 341.495871 
L 530.181818 338.025974 
L 534.6 334.858655 
L 539.018182 331.967051 
L 543.436364 329.329354 
L 547.854545 326.927638 
L 552.903896 324.452801 
L 557.953247 322.248459 
L 563.002597 320.299542 
L 568.051948 318.593649 
L 573.101299 317.120575 
L 578.150649 315.871964 
L 583.2 314.841046 
L 588.249351 314.022434 
L 593.298701 313.411975 
L 598.348052 313.006646 
L 603.397403 312.80447 
L 608.446753 312.80447 
L 613.496104 313.006646 
L 618.545455 313.411975 
L 623.594805 314.022434 
L 628.644156 314.841046 
L 633.693506 315.871964 
L 638.742857 317.120575 
L 643.792208 318.593649 
L 648.841558 320.299542 
L 653.890909 322.248459 
L 658.94026 324.452801 
L 663.98961 326.927638 
L 668.407792 329.329354 
L 672.825974 331.967051 
L 677.244156 334.858655 
L 681.662338 338.025974 
L 686.080519 341.495871 
L 689.867532 344.736137 
L 693.654545 348.24968 
L 697.441558 352.069624 
L 701.228571 356.238377 
L 704.384416 360.018482 
L 707.54026 364.121673 
L 710.696104 368.604414 
L 713.851948 373.544622 
L 716.376623 377.900328 
L 718.901299 382.704378 
L 721.425974 388.083489 
L 723.319481 392.614565 
L 725.212987 397.725668 
L 727.106494 403.667532 
L 728.368831 408.324938 
L 729.631169 413.892785 
L 730.262338 417.230803 
L 730.893506 421.205523 
L 731.524675 426.405399 
L 732.155844 439.012987 
L 732.155844 439.012987 
L 731.454545 453.021418 
L 730.753247 458.799058 
L 729.350649 466.924323 
L 727.948052 473.110819 
L 726.545455 478.285714 
L 724.441558 484.887786 
L 722.337662 490.56679 
L 720.233766 495.601318 
L 718.12987 500.15079 
L 715.324675 505.632672 
L 712.519481 510.586696 
L 709.714286 515.116014 
L 706.207792 520.28803 
L 702.701299 525.007193 
L 699.194805 529.344507 
L 695.688312 533.352652 
L 691.480519 537.784131 
L 687.272727 541.853127 
L 683.064935 545.601162 
L 678.857143 549.061033 
L 674.649351 552.259156 
L 669.74026 555.688101 
L 664.831169 558.818125 
L 659.922078 561.672115 
L 655.012987 564.26894 
L 650.103896 566.624302 
L 645.194805 568.751351 
L 640.285714 570.661156 
L 634.675325 572.58968 
L 629.064935 574.258219 
L 623.454545 575.676294 
L 617.844156 576.851637 
L 612.233766 577.790414 
L 606.623377 578.497403 
L 601.012987 578.976115 
L 595.402597 579.228889 
L 589.792208 579.256947 
L 584.181818 579.060424 
L 578.571429 578.638371 
L 572.961039 577.988733 
L 567.350649 577.1083 
L 561.74026 575.99262 
L 556.12987 574.635888 
L 550.519481 573.030784 
L 544.909091 571.168257 
L 540 569.31874 
L 535.090909 567.254808 
L 530.181818 564.965921 
L 525.272727 562.439566 
L 520.363636 559.660825 
L 515.454545 556.611809 
L 510.545455 553.270882 
L 506.337662 550.155003 
L 502.12987 546.785052 
L 497.922078 543.136362 
L 493.714286 539.178477 
L 489.506494 534.873106 
L 486 530.984776 
L 482.493506 526.784659 
L 478.987013 522.225558 
L 475.480519 517.244735 
L 472.675325 512.89939 
L 469.87013 508.168293 
L 467.064935 502.965892 
L 464.961039 498.681103 
L 462.857143 493.983354 
L 460.753247 488.755783 
L 458.649351 482.809077 
L 457.246753 478.285714 
L 455.844156 473.110819 
L 454.441558 466.924323 
L 453.74026 463.215414 
L 453.038961 458.799058 
L 452.337662 453.021418 
L 450.864935 423.603713 
L 450.093506 417.248309 
L 449.322078 412.390318 
L 447.779221 404.729951 
L 446.236364 398.551577 
L 444.693506 393.250949 
L 442.379221 386.374645 
L 440.064935 380.389491 
L 437.750649 375.044857 
L 435.436364 370.191354 
L 432.350649 364.319737 
L 429.264935 358.996096 
L 426.179221 354.117281 
L 423.093506 349.610439 
L 419.236364 344.41936 
L 415.379221 339.648315 
L 411.522078 335.239356 
L 407.664935 331.148071 
L 403.807792 327.339542 
L 399.179221 323.103437 
L 394.550649 319.195452 
L 389.922078 315.584416 
L 385.293506 312.244949 
L 380.664935 309.156099 
L 376.036364 306.300365 
L 370.636364 303.24375 
L 365.236364 300.464759 
L 359.836364 297.946984 
L 354.436364 295.676659 
L 349.036364 293.64219 
L 343.636364 291.833796 
L 338.236364 290.243232 
L 332.836364 288.863576 
L 327.436364 287.689058 
L 322.036364 286.714933 
L 315.864935 285.842158 
L 309.693506 285.221779 
L 303.522078 284.850751 
L 297.350649 284.727273 
L 291.179221 284.850751 
L 285.007792 285.221779 
L 278.836364 285.842158 
L 272.664935 286.714933 
L 267.264935 287.689058 
L 261.864935 288.863576 
L 256.464935 290.243232 
L 251.064935 291.833796 
L 245.664935 293.64219 
L 240.264935 295.676659 
L 234.864935 297.946984 
L 229.464935 300.464759 
L 224.064935 303.24375 
L 218.664935 306.300365 
L 214.036364 309.156099 
L 209.407792 312.244949 
L 204.779221 315.584416 
L 200.150649 319.195452 
L 195.522078 323.103437 
L 190.893506 327.339542 
L 187.036364 331.148071 
L 183.179221 335.239356 
L 179.322078 339.648315 
L 175.464935 344.41936 
L 171.607792 349.610439 
L 168.522078 354.117281 
L 165.436364 358.996096 
L 162.350649 364.319737 
L 159.264935 370.191354 
L 156.950649 375.044857 
L 154.636364 380.389491 
L 152.322078 386.374645 
L 150.779221 390.837288 
L 149.236364 395.812987 
L 147.693506 401.505371 
L 146.150649 408.310518 
L 145.379221 412.390318 
L 144.607792 417.248309 
L 143.836364 423.603713 
L 143.064935 439.012987 
L 143.064935 439.012987 
L 143.906494 455.823104 
L 144.748052 462.756273 
L 145.58961 468.055899 
L 147.272727 476.412662 
L 148.955844 483.152707 
L 150.638961 488.93521 
L 152.322078 494.062746 
L 154.846753 500.87755 
L 157.371429 506.918984 
L 159.896104 512.378351 
L 162.420779 517.377398 
L 165.787013 523.467056 
L 169.153247 529.020407 
L 172.519481 534.131431 
L 175.885714 538.868072 
L 179.251948 543.281365 
L 183.45974 548.402637 
L 187.667532 553.139606 
L 191.875325 557.53836 
L 196.083117 561.635301 
L 200.290909 565.459768 
L 205.34026 569.723025 
L 210.38961 573.662338 
L 215.438961 577.305392 
L 220.488312 580.675047 
L 225.537662 583.790393 
L 230.587013 586.667527 
L 235.636364 589.320131 
L 241.527273 592.146565 
L 247.418182 594.699024 
L 253.309091 596.99079 
L 259.2 599.033062 
L 265.090909 600.835288 
L 270.981818 602.405411 
L 276.872727 603.750067 
L 282.763636 604.874741 
L 288.654545 605.783883 
L 294.545455 606.481002 
L 300.436364 606.968741 
L 306.327273 607.248918 
L 312.218182 607.322571 
L 318.109091 607.189972 
L 324 606.850631 
L 329.890909 606.303291 
L 335.781818 605.545899 
L 341.672727 604.575575 
L 347.563636 603.388546 
L 353.454545 601.980078 
L 359.345455 600.344372 
L 365.236364 598.474433 
L 371.127273 596.361912 
L 377.018182 593.99689 
L 382.909091 591.367608 
L 388.8 588.460119 
L 393.849351 585.734061 
L 398.898701 582.779152 
L 403.948052 579.58096 
L 408.997403 576.122461 
L 414.046753 572.383407 
L 419.096104 568.339465 
L 424.145455 563.961037 
L 428.353247 560.03073 
L 432.561039 555.816933 
L 436.768831 551.287733 
L 440.976623 546.403231 
L 445.184416 541.112444 
L 448.550649 536.543039 
L 451.916883 531.626484 
L 455.283117 526.304141 
L 458.649351 520.496533 
L 461.174026 515.756473 
L 463.698701 510.614726 
L 466.223377 504.977428 
L 468.748052 498.704342 
L 470.431169 494.062746 
L 472.114286 488.93521 
L 473.797403 483.152707 
L 475.480519 476.412662 
L 476.322078 472.50659 
L 477.163636 468.055899 
L 478.005195 462.756273 
L 478.846753 455.823104 
L 480.6 420.802027 
L 481.511688 413.291094 
L 482.423377 407.549832 
L 484.246753 398.496672 
L 486.07013 391.194957 
L 487.893506 384.930579 
L 489.716883 379.375748 
L 492.451948 371.993044 
L 495.187013 365.448157 
L 497.922078 359.533843 
L 500.657143 354.118208 
L 503.392208 349.111089 
L 507.038961 342.960663 
L 510.685714 337.311714 
L 514.332468 332.084734 
L 517.979221 327.220519 
L 521.625974 322.673556 
L 526.184416 317.382012 
L 530.742857 312.475379 
L 535.301299 307.910433 
L 539.85974 303.6526 
L 544.418182 299.673724 
L 548.976623 295.950527 
L 554.446753 291.792967 
L 559.916883 287.947582 
L 565.387013 284.391079 
L 570.857143 281.103939 
L 576.327273 278.069656 
L 581.797403 275.274172 
L 587.267532 272.705445 
L 592.737662 270.353113 
L 599.119481 267.870368 
L 605.501299 265.657906 
L 611.883117 263.705494 
L 618.264935 262.004528 
L 624.646753 260.547817 
L 631.028571 259.32942 
L 637.41039 258.344517 
L 643.792208 257.589304 
L 650.174026 257.060921 
L 656.555844 256.757395 
L 662.937662 256.677604 
L 669.319481 256.821253 
L 675.701299 257.188873 
L 682.083117 257.781825 
L 688.464935 258.602332 
L 694.846753 259.653517 
L 701.228571 260.939464 
L 707.61039 262.465305 
L 713.992208 264.23732 
L 720.374026 266.263087 
L 726.755844 268.551651 
L 732.225974 270.730537 
L 737.696104 273.118278 
L 743.166234 275.724037 
L 748.636364 278.558434 
L 754.106494 281.633824 
L 759.576623 284.964638 
L 765.046753 288.56784 
L 770.516883 292.463522 
L 775.987013 296.675695 
L 780.545455 300.44836 
L 785.103896 304.481027 
L 789.662338 308.79785 
L 794.220779 313.428129 
L 798.779221 318.40796 
L 803.337662 323.782653 
L 806.984416 328.405242 
L 810.631169 333.355431 
L 814.277922 338.681699 
L 817.924675 344.44757 
L 821.571429 350.739146 
L 824.306494 355.874211 
L 827.041558 361.444437 
L 829.776623 367.55151 
L 832.511688 374.347352 
L 834.335065 379.375748 
L 836.158442 384.930579 
L 837.981818 391.194957 
L 839.805195 398.496672 
L 840.716883 402.72825 
L 841.628571 407.549832 
L 842.54026 413.291094 
L 843.451948 420.802027 
L 845.345455 458.62479 
L 846.327273 466.713487 
L 847.309091 472.896385 
L 848.290909 478.088857 
L 850.254545 486.749952 
L 852.218182 493.994805 
L 854.181818 500.327513 
L 856.145455 506.007241 
L 858.109091 511.188311 
L 861.054545 518.23665 
L 864 524.605912 
L 866.945455 530.438133 
L 869.890909 535.830416 
L 872.836364 540.852667 
L 876.763636 547.062067 
L 880.690909 552.798048 
L 884.618182 558.12902 
L 888.545455 563.107193 
L 892.472727 567.773491 
L 897.381818 573.217154 
L 902.290909 578.275512 
L 907.2 582.989183 
L 912.109091 587.391021 
L 917.018182 591.508031 
L 921.927273 595.362716 
L 926.836364 598.97404 
L 932.727273 603.008956 
L 938.618182 606.74018 
L 944.509091 610.187574 
L 950.4 613.367974 
L 956.290909 616.29575 
L 962.181818 618.983232 
L 968.072727 621.441041 
L 973.963636 623.678345 
L 979.854545 625.703074 
L 985.745455 627.522078 
L 992.618182 629.392064 
L 999.490909 630.997986 
L 1006.363636 632.346425 
L 1013.236364 633.442737 
L 1020.109091 634.291169 
L 1026.981818 634.894942 
L 1033.854545 635.256314 
L 1040.727273 635.376623 
L 1047.6 635.256314 
L 1054.472727 634.894942 
L 1061.345455 634.291169 
L 1068.218182 633.442737 
L 1075.090909 632.346425 
L 1081.963636 630.997986 
L 1088.836364 629.392064 
L 1095.709091 627.522078 
L 1101.6 625.703074 
L 1107.490909 623.678345 
L 1113.381818 621.441041 
L 1119.272727 618.983232 
L 1125.163636 616.29575 
L 1131.054545 613.367974 
L 1136.945455 610.187574 
L 1142.836364 606.74018 
L 1148.727273 603.008956 
L 1154.618182 598.97404 
L 1159.527273 595.362716 
L 1164.436364 591.508031 
L 1169.345455 587.391021 
L 1174.254545 582.989183 
L 1179.163636 578.275512 
L 1184.072727 573.217154 
L 1188.981818 567.773491 
L 1192.909091 563.107193 
L 1196.836364 558.12902 
L 1200.763636 552.798048 
L 1204.690909 547.062067 
L 1208.618182 540.852667 
L 1211.563636 535.830416 
L 1214.509091 530.438133 
L 1217.454545 524.605912 
L 1220.4 518.23665 
L 1223.345455 511.188311 
L 1225.309091 506.007241 
L 1227.272727 500.327513 
L 1229.236364 493.994805 
L 1231.2 486.749952 
L 1233.163636 478.088857 
L 1234.145455 472.896385 
L 1235.127273 466.713487 
L 1236.109091 458.62479 
L 1237.090909 439.012987 
L 1237.090909 439.012987 
L 1236.038961 418.000341 
L 1234.987013 409.33388 
L 1233.935065 402.709347 
L 1232.883117 397.145983 
L 1230.779221 387.866239 
L 1228.675325 380.103896 
L 1226.571429 373.318852 
L 1224.467532 367.233429 
L 1222.363636 361.682283 
L 1219.207792 354.130491 
L 1216.051948 347.306282 
L 1212.896104 341.057473 
L 1209.74026 335.280027 
L 1206.584416 329.899045 
L 1202.376623 323.246116 
L 1198.168831 317.100422 
L 1193.961039 311.388665 
L 1189.753247 306.054909 
L 1185.545455 301.055304 
L 1181.337662 296.354713 
L 1176.077922 290.856271 
L 1170.818182 285.735095 
L 1165.558442 280.95451 
L 1160.298701 276.48446 
L 1155.038961 272.299962 
L 1149.779221 268.380009 
L 1144.519481 264.70675 
L 1139.25974 261.264892 
L 1132.948052 257.421645 
L 1126.636364 253.873118 
L 1120.324675 250.60266 
L 1114.012987 247.596015 
L 1107.701299 244.840929 
L 1101.38961 242.32683 
L 1095.077922 240.044584 
L 1088.766234 237.986292 
L 1082.454545 236.145139 
L 1076.142857 234.51526 
L 1069.831169 233.091637 
L 1063.519481 231.870018 
L 1057.207792 230.846847 
L 1050.896104 230.019208 
L 1044.584416 229.384787 
L 1037.220779 228.886528 
L 1029.857143 228.647047 
L 1022.493506 228.665459 
L 1015.12987 228.941832 
L 1007.766234 229.477187 
L 1001.454545 230.143675 
L 995.142857 231.003725 
L 988.831169 232.059752 
L 982.519481 233.314773 
L 976.207792 234.772457 
L 969.896104 236.437179 
L 963.584416 238.31409 
L 957.272727 240.409207 
L 950.961039 242.729515 
L 944.649351 245.283108 
L 938.337662 248.079344 
L 932.025974 251.129057 
L 925.714286 254.444812 
L 919.402597 258.04123 
L 913.090909 261.935412 
L 907.831169 265.422433 
L 902.571429 269.143733 
L 897.311688 273.115076 
L 892.051948 277.354889 
L 886.792208 281.884904 
L 881.532468 286.731016 
L 876.272727 291.924466 
L 872.064935 296.354713 
L 867.857143 301.055304 
L 863.649351 306.054909 
L 859.441558 311.388665 
L 855.233766 317.100422 
L 851.025974 323.246116 
L 847.87013 328.183383 
L 844.714286 333.445401 
L 841.558442 339.083459 
L 838.402597 345.165306 
L 835.246753 351.783719 
L 832.090909 359.071856 
L 829.987013 364.398793 
L 827.883117 370.200788 
L 825.779221 376.610209 
L 823.675325 383.838337 
L 821.571429 392.263393 
L 820.519481 397.145983 
L 819.467532 402.709347 
L 818.415584 409.33388 
L 817.363636 418.000341 
L 815.18961 461.426476 
L 814.067532 470.670701 
L 812.945455 477.73687 
L 811.823377 483.671124 
L 809.579221 493.569519 
L 807.335065 501.849351 
L 805.090909 509.086731 
L 802.846753 515.577849 
L 800.602597 521.499071 
L 798.358442 526.965575 
L 794.992208 534.481972 
L 791.625974 541.337635 
L 788.25974 547.657715 
L 784.893506 553.530921 
L 781.527273 559.02288 
L 777.038961 565.837578 
L 772.550649 572.1531 
L 768.062338 578.037491 
L 763.574026 583.543418 
L 759.085714 588.712649 
L 754.597403 593.578966 
L 750.109091 598.170159 
L 744.498701 603.557211 
L 738.888312 608.587883 
L 733.277922 613.293038 
L 727.667532 617.698391 
L 722.057143 621.825619 
L 716.446753 625.693169 
L 710.836364 629.316873 
L 705.225974 632.710419 
L 698.493506 636.495514 
L 691.761039 639.984003 
L 685.028571 643.191091 
L 678.296104 646.129849 
L 671.563636 648.811554 
L 664.831169 651.245951 
L 658.098701 653.441461 
L 651.366234 655.405358 
L 644.633766 657.143896 
L 637.901299 658.662427 
L 631.168831 659.965487 
L 624.436364 661.05687 
L 617.703896 661.939684 
L 610.971429 662.6164 
L 604.238961 663.088886 
L 597.506494 663.358431 
L 590.774026 663.425766 
L 584.041558 663.291075 
L 577.309091 662.953992 
L 570.576623 662.413601 
L 563.844156 661.668422 
L 557.111688 660.71639 
L 550.379221 659.554826 
L 543.646753 658.180399 
L 536.914286 656.589075 
L 530.181818 654.776055 
L 523.449351 652.735696 
L 516.716883 650.461419 
L 509.984416 647.945583 
L 503.251948 645.179347 
L 496.519481 642.152482 
L 489.787013 638.853143 
L 483.054545 635.267591 
L 477.444156 632.049528 
L 471.833766 628.610955 
L 466.223377 624.93964 
L 460.612987 621.021497 
L 455.002597 616.840213 
L 449.392208 612.376749 
L 443.781818 607.608695 
L 438.171429 602.509405 
L 432.561039 597.046818 
L 428.072727 592.389177 
L 423.584416 587.449944 
L 419.096104 582.199978 
L 414.607792 576.603717 
L 410.119481 570.61699 
L 405.631169 564.183784 
L 402.264935 559.02288 
L 398.898701 553.530921 
L 395.532468 547.657715 
L 392.166234 541.337635 
L 388.8 534.481972 
L 385.433766 526.965575 
L 383.18961 521.499071 
L 380.945455 515.577849 
L 378.701299 509.086731 
L 376.457143 501.849351 
L 374.212987 493.569519 
L 373.090909 488.879221 
L 371.968831 483.671124 
L 370.846753 477.73687 
L 369.724675 470.670701 
L 368.602597 461.426476 
L 367.480519 439.012987 
L 367.480519 439.012987 
L 368.672727 415.198655 
L 369.864935 405.376666 
L 371.057143 397.868861 
L 372.249351 391.563716 
L 373.441558 386.030114 
L 375.825974 376.481717 
L 378.21039 368.289838 
L 380.594805 361.025828 
L 382.979221 354.450234 
L 385.363636 348.413039 
L 387.748052 342.812825 
L 391.324675 335.078721 
L 394.901299 327.996738 
L 398.477922 321.448966 
L 402.054545 315.350519 
L 405.631169 309.637841 
L 409.207792 304.261859 
L 413.976623 297.551617 
L 418.745455 291.299452 
L 423.514286 285.449404 
L 428.283117 279.957096 
L 433.051948 274.786634 
L 437.820779 269.908492 
L 442.58961 265.298043 
L 448.550649 259.880047 
L 454.511688 254.813989 
L 460.472727 250.071559 
L 466.433766 245.628945 
L 472.394805 241.465919 
L 478.355844 237.565146 
L 484.316883 233.911662 
L 490.277922 230.49247 
L 496.238961 227.296217 
L 502.2 224.312947 
L 509.353247 221.001892 
L 516.506494 217.971746 
L 523.65974 215.2111 
L 530.812987 212.71009 
L 537.966234 210.460192 
L 545.119481 208.454055 
L 552.272727 206.685365 
L 559.425974 205.148733 
L 566.579221 203.839612 
L 573.732468 202.754218 
L 580.885714 201.889481 
L 588.038961 201.242991 
L 595.192208 200.812973 
L 602.345455 200.598255 
L 609.498701 200.598255 
L 616.651948 200.812973 
L 623.805195 201.242991 
L 630.958442 201.889481 
L 638.111688 202.754218 
L 645.264935 203.839612 
L 652.418182 205.148733 
L 659.571429 206.685365 
L 666.724675 208.454055 
L 673.877922 210.460192 
L 681.031169 212.71009 
L 688.184416 215.2111 
L 695.337662 217.971746 
L 702.490909 221.001892 
L 709.644156 224.312947 
L 715.605195 227.296217 
L 721.566234 230.49247 
L 727.527273 233.911662 
L 733.488312 237.565146 
L 739.449351 241.465919 
L 745.41039 245.628945 
L 751.371429 250.071559 
L 757.332468 254.813989 
L 763.293506 259.880047 
L 769.254545 265.298043 
L 774.023377 269.908492 
L 778.792208 274.786634 
L 783.561039 279.957096 
L 788.32987 285.449404 
L 793.098701 291.299452 
L 797.867532 297.551617 
L 802.636364 304.261859 
L 806.212987 309.637841 
L 809.78961 315.350519 
L 813.366234 321.448966 
L 816.942857 327.996738 
L 820.519481 335.078721 
L 824.096104 342.812825 
L 826.480519 348.413039 
L 828.864935 354.450234 
L 831.249351 361.025828 
L 833.633766 368.289838 
L 836.018182 376.481717 
L 838.402597 386.030114 
L 839.594805 391.563716 
L 840.787013 397.868861 
L 841.979221 405.376666 
L 843.171429 415.198655 
L 844.363636 439.012987 
L 844.363636 439.012987 
"/>
</svg>
