<svg height="864pt" version="1.1" viewBox="0 0 1296 864" width="1296pt" xmlns="http://www.w3.org/2000/svg" xmlns:xlink="http://www.w3.org/1999/xlink">
<link xmlns="http://www.w3.org/1999/xhtml" rel="stylesheet" href="styles.css" type="text/css"/>
    <path class='path' fill="#FFFFFF" stroke="#000000" stroke-linecap="square" stroke-width="7" d="M 611.181818 422.795455 
L 610.997727 420.198533 
L 610.5375 417.967673 
L 609.893182 416.029018 
L 609.064773 414.224347 
L 608.052273 412.527538 
L 606.855682 410.939443 
L 605.475 409.470782 
L 603.910227 408.137667 
L 602.253409 407.015363 
L 600.504545 406.088761 
L 598.663636 405.354359 
L 596.730682 404.816878 
L 594.705682 404.488125 
L 592.680682 404.386594 
L 590.655682 404.508499 
L 588.630682 404.858395 
L 586.697727 405.417624 
L 584.856818 406.175195 
L 583.107955 407.127436 
L 581.451136 408.279387 
L 579.886364 409.648734 
L 578.505682 411.161623 
L 577.309091 412.806932 
L 576.296591 414.583782 
L 575.468182 416.514743 
L 574.915909 418.320114 
L 574.547727 420.198533 
L 574.455682 420.956848 
L 573.995455 427.989298 
L 573.443182 430.976633 
L 572.706818 433.715941 
L 571.786364 436.328328 
L 570.681818 438.844128 
L 569.393182 441.269782 
L 567.920455 443.602614 
L 566.263636 445.835518 
L 564.422727 447.958736 
L 562.397727 449.960562 
L 560.188636 451.827589 
L 557.795455 453.544699 
L 555.402273 454.993476 
L 552.825 456.293425 
L 550.247727 457.353099 
L 547.486364 458.246221 
L 544.725 458.906847 
L 541.963636 459.347584 
L 539.202273 459.576339 
L 536.256818 459.591078 
L 533.311364 459.369366 
L 530.55 458.94296 
L 527.788636 458.297328 
L 525.027273 457.420209 
L 522.45 456.376785 
L 519.872727 455.094885 
L 517.479545 453.665145 
L 515.086364 451.970234 
L 512.877273 450.12784 
L 510.852273 448.153936 
L 509.011364 446.063118 
L 507.354545 443.868839 
L 505.881818 441.583553 
L 504.593182 439.218799 
L 503.488636 436.785152 
L 502.568182 434.291928 
L 501.831818 431.746136 
L 501.279545 429.148592 
L 500.911364 426.472668 
L 500.451136 417.279635 
L 499.898864 413.265749 
L 499.070455 409.369433 
L 497.965909 405.550744 
L 496.861364 402.496145 
L 495.480682 399.301134 
L 493.823864 396.058666 
L 491.890909 392.829888 
L 489.957955 390.030505 
L 487.748864 387.227419 
L 485.263636 384.46916 
L 482.778409 382.047794 
L 480.017045 379.683679 
L 477.255682 377.611073 
L 474.218182 375.622182 
L 471.180682 373.90216 
L 468.143182 372.423459 
L 464.829545 371.061323 
L 461.515909 369.941483 
L 458.202273 369.04879 
L 454.888636 368.372067 
L 451.298864 367.873466 
L 447.709091 367.612381 
L 444.119318 367.585443 
L 440.529545 367.792307 
L 436.939773 368.235633 
L 433.626136 368.859724 
L 430.3125 369.697512 
L 426.998864 370.759317 
L 423.685227 372.059202 
L 420.647727 373.475923 
L 417.610227 375.127727 
L 414.572727 377.040067 
L 411.811364 379.033286 
L 409.05 381.305104 
L 406.564773 383.627869 
L 404.079545 386.266047 
L 401.870455 388.935236 
L 399.9375 391.584715 
L 398.004545 394.613307 
L 396.347727 397.613998 
L 394.967045 400.513799 
L 393.586364 403.953321 
L 392.481818 407.331818 
L 391.653409 410.523686 
L 391.101136 413.265749 
L 390.548864 417.279635 
L 389.904545 430.149881 
L 389.168182 435.501729 
L 388.431818 439.157812 
L 387.327273 443.413636 
L 386.222727 446.879724 
L 384.75 450.77485 
L 382.909091 454.892801 
L 381.068182 458.444506 
L 378.859091 462.173701 
L 376.65 465.464852 
L 374.072727 468.875582 
L 371.495455 471.915656 
L 368.55 475.018901 
L 365.604545 477.790284 
L 362.659091 480.277822 
L 359.345455 482.780849 
L 356.031818 485.007288 
L 352.718182 486.985925 
L 349.036364 488.920745 
L 345.354545 490.600912 
L 341.672727 492.044964 
L 337.990909 493.267417 
L 333.940909 494.369659 
L 329.890909 495.229087 
L 325.840909 495.854269 
L 321.790909 496.251188 
L 317.740909 496.423534 
L 313.690909 496.372886 
L 309.640909 496.098781 
L 305.590909 495.598696 
L 301.540909 494.867927 
L 297.490909 493.899362 
L 293.440909 492.683114 
L 289.759091 491.351463 
L 286.077273 489.791395 
L 282.395455 487.986514 
L 278.713636 485.915822 
L 275.4 483.802637 
L 272.086364 481.426603 
L 268.772727 478.754246 
L 265.827273 476.094144 
L 262.881818 473.122017 
L 260.304545 470.219502 
L 257.727273 466.977273 
L 255.518182 463.867122 
L 253.309091 460.371652 
L 251.468182 457.079884 
L 249.627273 453.325698 
L 248.154545 449.861201 
L 246.681818 445.788402 
L 245.577273 442.106582 
L 244.472727 437.448906 
L 243.736364 433.183142 
L 243.368182 430.149881 
L 242.539773 413.602422 
L 241.619318 406.912612 
L 240.698864 402.342507 
L 239.318182 397.022727 
L 237.9375 392.690117 
L 236.096591 387.82121 
L 234.255682 383.638254 
L 232.414773 379.939917 
L 230.113636 375.825208 
L 227.8125 372.147448 
L 225.051136 368.187205 
L 222.289773 364.626296 
L 219.528409 361.395203 
L 216.306818 357.976891 
L 213.085227 354.882686 
L 209.863636 352.070037 
L 206.181818 349.159091 
L 202.5 346.536476 
L 198.818182 344.173333 
L 194.676136 341.796762 
L 190.534091 339.694159 
L 186.392045 337.845179 
L 182.25 336.233568 
L 178.107955 334.846276 
L 173.965909 333.672826 
L 169.363636 332.609696 
L 164.761364 331.791403 
L 160.159091 331.211384 
L 155.556818 330.865129 
L 150.954545 330.75 
L 146.352273 330.865129 
L 141.75 331.211384 
L 137.147727 331.791403 
L 132.545455 332.609696 
L 127.943182 333.672826 
L 123.801136 334.846276 
L 119.659091 336.233568 
L 115.517045 337.845179 
L 111.375 339.694159 
L 107.232955 341.796762 
L 103.090909 344.173333 
L 99.409091 346.536476 
L 95.727273 349.159091 
L 92.045455 352.070037 
L 88.823864 354.882686 
L 85.602273 357.976891 
L 82.380682 361.395203 
L 79.619318 364.626296 
L 76.857955 368.187205 
L 74.096591 372.147448 
L 71.795455 375.825208 
L 69.494318 379.939917 
L 67.653409 383.638254 
L 65.8125 387.82121 
L 64.431818 391.391898 
L 63.051136 395.494239 
L 61.670455 400.418752 
L 60.75 404.47864 
L 59.829545 409.810845 
L 59.369318 413.602422 
L 58.909091 422.795455 
L 58.909091 422.795455 
L 59.461364 433.827094 
L 60.013636 438.376986 
L 61.118182 444.775632 
L 62.222727 449.647497 
L 63.879545 455.556913 
L 65.536364 460.479722 
L 67.193182 464.764548 
L 69.402273 469.784096 
L 71.611364 474.222099 
L 73.820455 478.218437 
L 76.581818 482.726589 
L 79.343182 486.799551 
L 82.104545 490.515892 
L 85.418182 494.582412 
L 88.731818 498.285298 
L 92.045455 501.675778 
L 95.911364 505.287698 
L 99.777273 508.573917 
L 103.643182 511.570611 
L 107.509091 514.306229 
L 111.927273 517.142001 
L 116.345455 519.693747 
L 120.763636 521.98339 
L 125.181818 524.028718 
L 129.6 525.844277 
L 134.018182 527.442029 
L 138.988636 528.99134 
L 143.959091 530.288783 
L 148.929545 531.343391 
L 153.9 532.162189 
L 158.870455 532.750444 
L 163.840909 533.111845 
L 168.811364 533.248619 
L 173.781818 533.161601 
L 178.752273 532.85026 
L 183.722727 532.312682 
L 188.693182 531.545513 
L 193.663636 530.543849 
L 198.634091 529.301075 
L 203.604545 527.808629 
L 208.022727 526.263717 
L 212.440909 524.503641 
L 216.859091 522.517009 
L 221.277273 520.289972 
L 225.695455 517.805627 
L 230.113636 515.043187 
L 233.979545 512.377768 
L 237.845455 509.458291 
L 241.711364 506.258099 
L 245.577273 502.743489 
L 248.890909 499.448044 
L 252.204545 495.854269 
L 255.518182 491.915646 
L 258.279545 488.325354 
L 261.040909 484.402956 
L 263.802273 480.080274 
L 266.011364 476.269031 
L 268.220455 472.065487 
L 270.429545 467.358765 
L 272.086364 463.394074 
L 273.743182 458.921859 
L 275.4 453.722727 
L 276.504545 449.647497 
L 277.609091 444.775632 
L 278.713636 438.376986 
L 279.265909 433.827094 
L 280.4625 409.925209 
L 281.106818 404.617002 
L 282.395455 397.151915 
L 283.684091 391.468071 
L 284.972727 386.713636 
L 286.905682 380.647983 
L 288.838636 375.430398 
L 290.771591 370.804926 
L 293.348864 365.31375 
L 295.926136 360.409615 
L 298.503409 355.963165 
L 301.725 350.920036 
L 304.946591 346.343905 
L 308.168182 342.155231 
L 311.389773 338.296374 
L 315.255682 334.040771 
L 319.121591 330.141245 
L 322.9875 326.554504 
L 326.853409 323.246732 
L 331.363636 319.704545 
L 335.873864 316.47124 
L 340.384091 313.519395 
L 344.894318 310.826746 
L 349.404545 308.374994 
L 353.914773 306.148948 
L 359.069318 303.865069 
L 364.223864 301.843699 
L 369.378409 300.071868 
L 374.532955 298.538898 
L 379.6875 297.236041 
L 384.842045 296.156195 
L 389.996591 295.293694 
L 395.151136 294.644148 
L 400.305682 294.204331 
L 405.460227 293.972094 
L 410.614773 293.946316 
L 415.769318 294.126872 
L 420.923864 294.514633 
L 426.078409 295.111488 
L 431.232955 295.920386 
L 436.3875 296.945417 
L 441.542045 298.191914 
L 446.696591 299.666604 
L 451.851136 301.3778 
L 457.005682 303.335666 
L 462.160227 305.552559 
L 466.670455 307.716548 
L 471.180682 310.102381 
L 475.690909 312.724484 
L 480.201136 315.600194 
L 484.711364 318.750536 
L 489.221591 322.201311 
L 493.0875 325.42237 
L 496.953409 328.912746 
L 500.819318 332.703735 
L 504.685227 336.835102 
L 507.906818 340.574799 
L 511.128409 344.625558 
L 514.35 349.03861 
L 517.571591 353.883524 
L 520.148864 358.135308 
L 522.726136 362.797702 
L 525.303409 367.975373 
L 527.236364 372.29143 
L 529.169318 377.094261 
L 531.102273 382.557797 
L 532.390909 386.713636 
L 533.679545 391.468071 
L 534.968182 397.151915 
L 535.6125 400.559475 
L 536.256818 404.617002 
L 536.901136 409.925209 
L 538.281818 437.504307 
L 539.018182 443.570829 
L 539.754545 448.208003 
L 541.227273 455.52017 
L 542.7 461.41771 
L 544.172727 466.477399 
L 546.381818 473.041145 
L 548.590909 478.754246 
L 550.8 483.855942 
L 553.009091 488.488831 
L 555.954545 494.093557 
L 558.9 499.175214 
L 561.845455 503.832264 
L 564.790909 508.13425 
L 568.472727 513.089371 
L 572.154545 517.64355 
L 575.836364 521.852103 
L 579.518182 525.757419 
L 583.936364 530.089979 
L 588.354545 534.07898 
L 592.772727 537.76019 
L 597.190909 541.16233 
L 601.609091 544.308842 
L 606.763636 547.68238 
L 611.918182 550.759693 
L 617.072727 553.561695 
L 622.227273 556.105748 
L 627.381818 558.40637 
L 632.536364 560.475764 
L 637.690909 562.32422 
L 642.845455 563.960416 
L 648.736364 565.579762 
L 654.627273 566.9404 
L 660.518182 568.049598 
L 666.409091 568.913084 
L 672.3 569.535195 
L 678.190909 569.918993 
L 684.081818 570.066341 
L 689.972727 569.97795 
L 695.863636 569.653393 
L 701.754545 569.0911 
L 707.645455 568.288313 
L 713.536364 567.241023 
L 719.427273 565.943864 
L 725.318182 564.389968 
L 730.472727 562.81302 
L 735.627273 561.026032 
L 740.781818 559.020737 
L 745.936364 556.787335 
L 751.090909 554.314205 
L 756.245455 551.587539 
L 761.4 548.590849 
L 766.554545 545.304324 
L 770.972727 542.238539 
L 775.390909 538.923992 
L 779.809091 535.338706 
L 784.227273 531.455884 
L 788.645455 527.242348 
L 792.327273 523.44858 
L 796.009091 519.365833 
L 799.690909 514.95571 
L 803.372727 510.168654 
L 806.318182 506.024093 
L 809.263636 501.551947 
L 812.209091 496.692765 
L 815.154545 491.364314 
L 817.363636 486.990148 
L 819.572727 482.213202 
L 821.781818 476.926947 
L 823.990909 470.963994 
L 825.463636 466.477399 
L 826.936364 461.41771 
L 828.409091 455.52017 
L 829.881818 448.208003 
L 830.618182 443.570829 
L 831.354545 437.504307 
L 832.919318 406.247996 
L 833.747727 399.423158 
L 834.576136 394.206338 
L 836.232955 385.980149 
L 837.889773 379.345417 
L 839.546591 373.653266 
L 841.203409 368.605848 
L 843.688636 361.897525 
L 846.173864 355.950489 
L 848.659091 350.576424 
L 851.144318 345.655487 
L 854.457955 339.66098 
L 857.771591 334.194401 
L 861.085227 329.163237 
L 864.398864 324.500605 
L 868.540909 319.115167 
L 872.682955 314.153779 
L 876.825 309.560689 
L 880.967045 305.292699 
L 885.109091 301.315539 
L 890.079545 296.888173 
L 895.05 292.8012 
L 900.020455 289.023417 
L 904.990909 285.529293 
L 909.961364 282.297663 
L 914.931818 279.310791 
L 919.902273 276.553678 
L 925.701136 273.6105 
L 931.5 270.94556 
L 937.298864 268.544436 
L 943.097727 266.394977 
L 948.896591 264.486932 
L 954.695455 262.811663 
L 960.494318 261.361923 
L 966.293182 260.131681 
L 972.092045 259.115989 
L 977.890909 258.310871 
L 983.689773 257.713247 
L 989.488636 257.320868 
L 995.2875 257.132277 
L 1001.086364 257.146776 
L 1006.885227 257.36442 
L 1012.684091 257.786012 
L 1018.482955 258.413122 
L 1024.281818 259.248113 
L 1030.080682 260.29419 
L 1035.879545 261.555462 
L 1041.678409 263.037024 
L 1047.477273 264.745073 
L 1053.276136 266.687042 
L 1059.075 268.871784 
L 1064.873864 271.309804 
L 1070.672727 274.013551 
L 1076.471591 276.997808 
L 1081.442045 279.792273 
L 1086.4125 282.818829 
L 1091.382955 286.092893 
L 1096.353409 289.632719 
L 1101.323864 293.460127 
L 1106.294318 297.601488 
L 1110.436364 301.315539 
L 1114.578409 305.292699 
L 1118.720455 309.560689 
L 1122.8625 314.153779 
L 1127.004545 319.115167 
L 1130.318182 323.386364 
L 1133.631818 327.965226 
L 1136.945455 332.898753 
L 1140.259091 338.249011 
L 1143.572727 344.100951 
L 1146.057955 348.890406 
L 1148.543182 354.102406 
L 1151.028409 359.841814 
L 1153.513636 366.269053 
L 1155.170455 371.061323 
L 1156.827273 376.404545 
L 1158.484091 382.51739 
L 1160.140909 389.825189 
L 1160.969318 394.206338 
L 1161.797727 399.423158 
L 1162.626136 406.247996 
L 1163.454545 422.795455 
L 1163.454545 422.795455 
L 1162.534091 441.18152 
L 1161.613636 448.764673 
L 1160.693182 454.56114 
L 1158.852273 463.701349 
L 1157.011364 471.073274 
L 1155.170455 477.397886 
L 1153.329545 483.006129 
L 1151.488636 488.082874 
L 1148.727273 494.944062 
L 1145.965909 501.109856 
L 1143.204545 506.733642 
L 1140.443182 511.918083 
L 1136.761364 518.270154 
L 1133.079545 524.091467 
L 1129.397727 529.468949 
L 1125.715909 534.466736 
L 1122.034091 539.133772 
L 1117.431818 544.560146 
L 1112.829545 549.587859 
L 1108.227273 554.26266 
L 1103.625 558.620991 
L 1099.022727 562.692434 
L 1094.420455 566.501374 
L 1088.897727 570.754049 
L 1083.375 574.687189 
L 1077.852273 578.325038 
L 1072.329545 581.687879 
L 1066.806818 584.79284 
L 1061.284091 587.654491 
L 1055.761364 590.285305 
L 1050.238636 592.696005 
L 1044.715909 594.895842 
L 1038.272727 597.206411 
L 1031.829545 599.251656 
L 1025.386364 601.040711 
L 1018.943182 602.581223 
L 1012.5 603.879535 
L 1006.056818 604.940827 
L 999.613636 605.769224 
L 993.170455 606.367878 
L 986.727273 606.739032 
L 980.284091 606.884062 
L 973.840909 606.803504 
L 967.397727 606.49706 
L 960.954545 605.963596 
L 954.511364 605.201122 
L 948.068182 604.206748 
L 941.625 602.976636 
L 935.181818 601.505918 
L 928.738636 599.788596 
L 922.295455 597.817412 
L 915.852273 595.583676 
L 910.329545 593.452295 
L 904.806818 591.112844 
L 899.284091 588.556515 
L 893.761364 585.773102 
L 888.238636 582.750752 
L 882.715909 579.475637 
L 877.193182 575.931541 
L 871.670455 572.09931 
L 866.147727 567.956127 
L 861.545455 564.24629 
L 856.943182 560.282527 
L 852.340909 556.042179 
L 847.738636 551.497911 
L 843.136364 546.616264 
L 838.534091 541.355574 
L 834.852273 536.838993 
L 831.170455 532.011954 
L 827.488636 526.831252 
L 823.806818 521.24107 
L 820.125 515.167093 
L 817.363636 510.233792 
L 814.602273 504.912176 
L 811.840909 499.121064 
L 809.079545 492.743944 
L 806.318182 485.602568 
L 804.477273 480.277822 
L 802.636364 474.340909 
L 800.795455 467.548859 
L 798.954545 459.429083 
L 798.034091 454.56114 
L 797.113636 448.764673 
L 796.193182 441.18152 
L 795.272727 422.795455 
L 795.272727 422.795455 
L 796.285227 402.570783 
L 797.297727 394.229314 
L 798.310227 387.853201 
L 799.322727 382.498463 
L 801.347727 373.566709 
L 803.372727 366.095455 
L 805.397727 359.56485 
L 807.422727 353.70763 
L 809.447727 348.364652 
L 812.485227 341.096052 
L 815.522727 334.527751 
L 818.560227 328.513273 
L 821.597727 322.952481 
L 824.635227 317.773285 
L 828.685227 311.369841 
L 832.735227 305.454611 
L 836.785227 299.957045 
L 840.835227 294.823305 
L 844.885227 290.011185 
L 848.935227 285.486866 
L 853.997727 280.194615 
L 859.060227 275.265484 
L 864.122727 270.664171 
L 869.185227 266.361747 
L 874.247727 262.334168 
L 879.310227 258.561213 
L 884.372727 255.025702 
L 890.447727 251.075932 
L 896.522727 247.42531 
L 902.597727 244.055506 
L 908.672727 240.950906 
L 914.747727 238.098136 
L 920.822727 235.485691 
L 926.897727 233.10364 
L 932.972727 230.943402 
L 939.047727 228.997559 
L 945.122727 227.25971 
L 951.197727 225.724352 
L 957.272727 224.386785 
L 964.360227 223.071007 
L 971.447727 222.013871 
L 978.535227 221.211307 
L 985.622727 220.660283 
L 992.710227 220.358746 
L 999.797727 220.30558 
L 1006.885227 220.50059 
L 1013.972727 220.944495 
L 1021.060227 221.638942 
L 1028.147727 222.58654 
L 1035.235227 223.790904 
L 1042.322727 225.25673 
L 1048.397727 226.725673 
L 1054.472727 228.395455 
L 1060.547727 230.271302 
L 1066.622727 232.359304 
L 1072.697727 234.666524 
L 1078.772727 237.201139 
L 1084.847727 239.972605 
L 1090.922727 242.991874 
L 1096.997727 246.271662 
L 1103.072727 249.826787 
L 1109.147727 253.674612 
L 1114.210227 257.119389 
L 1119.272727 260.795455 
L 1124.335227 264.718943 
L 1129.397727 268.908777 
L 1134.460227 273.387365 
L 1139.522727 278.181529 
L 1144.585227 283.323809 
L 1148.635227 287.7149 
L 1152.685227 292.379323 
L 1156.735227 297.347563 
L 1160.785227 302.657306 
L 1164.835227 308.356077 
L 1168.885227 314.505278 
L 1171.922727 319.460913 
L 1174.960227 324.760564 
L 1177.997727 330.463448 
L 1181.035227 336.649613 
L 1184.072727 343.431987 
L 1187.110227 350.979293 
L 1189.135227 356.563713 
L 1191.160227 362.73278 
L 1193.185227 369.689854 
L 1195.210227 377.79897 
L 1196.222727 382.498463 
L 1197.235227 387.853201 
L 1198.247727 394.229314 
L 1199.260227 402.570783 
L 1200.272727 422.795455 
L 1200.272727 422.795455 
L 1199.168182 444.858733 
L 1198.063636 453.958517 
L 1196.959091 460.914277 
L 1195.854545 466.755809 
L 1193.645455 476.49954 
L 1191.436364 484.65 
L 1189.227273 491.774296 
L 1187.018182 498.16399 
L 1184.809091 503.992694 
L 1181.495455 511.922075 
L 1178.181818 519.087495 
L 1174.868182 525.648744 
L 1171.554545 531.715062 
L 1168.240909 537.365094 
L 1164.927273 542.657723 
L 1160.509091 549.23576 
L 1156.090909 555.340909 
L 1151.672727 561.035838 
L 1147.254545 566.36937 
L 1142.836364 571.380426 
L 1138.418182 576.100634 
L 1132.895455 581.631242 
L 1127.372727 586.78977 
L 1121.85 591.610331 
L 1116.327273 596.121127 
L 1110.804545 600.345768 
L 1105.281818 604.304237 
L 1099.759091 608.013599 
L 1094.236364 611.488547 
L 1087.609091 615.366865 
L 1080.981818 618.944815 
L 1074.354545 622.238563 
L 1067.727273 625.261981 
L 1061.1 628.027015 
L 1054.472727 630.543983 
L 1047.845455 632.821803 
L 1041.218182 634.868182 
L 1034.590909 636.689762 
L 1027.963636 638.292244 
L 1021.336364 639.680485 
L 1014.709091 640.858577 
L 1008.081818 641.82991 
L 1001.454545 642.597225 
L 994.827273 643.162654 
L 988.2 643.527747 
L 981.572727 643.6935 
L 974.945455 643.660359 
L 968.318182 643.428236 
L 961.690909 642.996502 
L 955.063636 642.363978 
L 948.436364 641.528923 
L 941.809091 640.489006 
L 935.181818 639.241275 
L 928.554545 637.782112 
L 921.927273 636.107176 
L 915.3 634.211341 
L 908.672727 632.088603 
L 902.045455 629.731979 
L 895.418182 627.133378 
L 888.790909 624.283438 
L 882.163636 621.171326 
L 875.536364 617.78449 
L 868.909091 614.108339 
L 863.386364 610.811674 
L 857.863636 607.290919 
L 852.340909 603.53298 
L 846.818182 599.522727 
L 841.295455 595.242558 
L 835.772727 590.67183 
L 830.25 585.786098 
L 824.727273 580.556101 
L 820.309091 576.100634 
L 815.890909 571.380426 
L 811.472727 566.36937 
L 807.054545 561.035838 
L 802.636364 555.340909 
L 798.218182 549.23576 
L 793.8 542.657723 
L 790.486364 537.365094 
L 787.172727 531.715062 
L 783.859091 525.648744 
L 780.545455 519.087495 
L 777.231818 511.922075 
L 775.022727 506.733642 
L 772.813636 501.140358 
L 770.604545 495.048264 
L 768.395455 488.318372 
L 766.186364 480.728837 
L 763.977273 471.882528 
L 762.872727 466.755809 
L 761.768182 460.914277 
L 760.663636 453.958517 
L 759.559091 444.858733 
L 758.454545 422.795455 
L 758.454545 422.795455 
L 759.651136 398.89357 
L 760.847727 389.03547 
L 762.044318 381.500064 
L 763.240909 375.171738 
L 764.4375 369.617791 
L 766.830682 360.03429 
L 769.223864 351.812294 
L 771.617045 344.521578 
L 774.010227 337.921809 
L 776.403409 331.862418 
L 778.796591 326.241615 
L 782.386364 318.479078 
L 785.976136 311.371058 
L 789.565909 304.799213 
L 793.155682 298.678345 
L 796.745455 292.944664 
L 800.335227 287.548918 
L 805.121591 280.814006 
L 809.907955 274.538855 
L 814.694318 268.667299 
L 819.480682 263.1548 
L 824.267045 257.965328 
L 829.053409 253.069252 
L 833.839773 248.441852 
L 839.822727 243.003937 
L 845.805682 237.919255 
L 851.788636 233.159389 
L 857.771591 228.700442 
L 863.754545 224.52211 
L 869.7375 220.606996 
L 875.720455 216.940081 
L 881.703409 213.508318 
L 887.686364 210.300314 
L 893.669318 207.306076 
L 900.848864 203.982848 
L 908.028409 200.941562 
L 915.207955 198.170767 
L 922.3875 195.660561 
L 929.567045 193.402392 
L 936.746591 191.38888 
L 943.926136 189.613687 
L 951.105682 188.071406 
L 958.285227 186.757471 
L 965.464773 185.668087 
L 972.644318 184.800171 
L 979.823864 184.151304 
L 987.003409 183.719705 
L 994.182955 183.504198 
L 1001.3625 183.504198 
L 1008.542045 183.719705 
L 1015.721591 184.151304 
L 1022.901136 184.800171 
L 1030.080682 185.668087 
L 1037.260227 186.757471 
L 1044.439773 188.071406 
L 1051.619318 189.613687 
L 1058.798864 191.38888 
L 1065.978409 193.402392 
L 1073.157955 195.660561 
L 1080.3375 198.170767 
L 1087.517045 200.941562 
L 1094.696591 203.982848 
L 1101.876136 207.306076 
L 1107.859091 210.300314 
L 1113.842045 213.508318 
L 1119.825 216.940081 
L 1125.807955 220.606996 
L 1131.790909 224.52211 
L 1137.773864 228.700442 
L 1143.756818 233.159389 
L 1149.739773 237.919255 
L 1155.722727 243.003937 
L 1161.705682 248.441852 
L 1166.492045 253.069252 
L 1171.278409 257.965328 
L 1176.064773 263.1548 
L 1180.851136 268.667299 
L 1185.6375 274.538855 
L 1190.423864 280.814006 
L 1195.210227 287.548918 
L 1198.8 292.944664 
L 1202.389773 298.678345 
L 1205.979545 304.799213 
L 1209.569318 311.371058 
L 1213.159091 318.479078 
L 1216.748864 326.241615 
L 1219.142045 331.862418 
L 1221.535227 337.921809 
L 1223.928409 344.521578 
L 1226.321591 351.812294 
L 1228.714773 360.03429 
L 1231.107955 369.617791 
L 1232.304545 375.171738 
L 1233.501136 381.500064 
L 1234.697727 389.03547 
L 1235.894318 398.89357 
L 1237.090909 422.795455 
L 1237.090909 422.795455 
L 1235.802273 448.535946 
L 1234.513636 459.15236 
L 1233.225 467.267414 
L 1231.936364 474.082534 
L 1230.647727 480.063707 
L 1228.070455 490.384401 
L 1225.493182 499.238858 
L 1222.915909 507.090398 
L 1220.338636 514.197842 
L 1217.761364 520.72334 
L 1215.184091 526.776512 
L 1211.318182 535.136168 
L 1207.452273 542.790959 
L 1203.586364 549.86833 
L 1199.720455 556.460034 
L 1195.854545 562.634767 
L 1191.988636 568.445571 
L 1188.122727 573.934427 
L 1182.968182 580.809809 
L 1177.813636 587.236765 
L 1172.659091 593.266022 
L 1167.504545 598.938423 
L 1162.35 604.287432 
L 1157.195455 609.340869 
L 1152.040909 614.122156 
L 1146.886364 618.651225 
L 1140.443182 623.983742 
L 1134 628.977273 
L 1127.556818 633.655901 
L 1121.113636 638.040163 
L 1114.670455 642.14771 
L 1108.227273 645.99382 
L 1101.784091 649.591794 
L 1095.340909 652.953268 
L 1088.897727 656.088468 
L 1082.454545 659.006402 
L 1076.011364 661.715031 
L 1068.279545 664.698965 
L 1060.547727 667.402262 
L 1052.815909 669.834137 
L 1045.084091 672.002535 
L 1037.352273 673.914281 
L 1029.620455 675.575199 
L 1021.888636 676.990206 
L 1014.156818 678.163388 
L 1006.425 679.098068 
L 998.693182 679.796847 
L 990.961364 680.261646 
L 983.229545 680.493731 
L 975.497727 680.493731 
L 967.765909 680.261646 
L 960.034091 679.796847 
L 952.302273 679.098068 
L 944.570455 678.163388 
L 936.838636 676.990206 
L 929.106818 675.575199 
L 921.375 673.914281 
L 913.643182 672.002535 
L 905.911364 669.834137 
L 898.179545 667.402262 
L 890.447727 664.698965 
L 884.004545 662.232275 
L 877.561364 659.564634 
L 871.118182 656.689167 
L 864.675 653.598106 
L 858.231818 650.282662 
L 851.788636 646.732871 
L 845.345455 642.937395 
L 838.902273 638.88329 
L 832.459091 634.5557 
L 826.015909 629.937487 
L 819.572727 625.008739 
L 813.129545 619.746144 
L 807.975 615.277356 
L 802.820455 610.560872 
L 797.665909 605.577519 
L 792.511364 600.304821 
L 787.356818 594.71616 
L 782.202273 588.779622 
L 777.047727 582.456408 
L 771.893182 575.698553 
L 768.027273 570.309144 
L 764.161364 564.609872 
L 760.295455 558.56172 
L 756.429545 552.115748 
L 752.563636 545.209127 
L 748.697727 537.758864 
L 744.831818 529.651308 
L 742.254545 523.803504 
L 739.677273 517.525567 
L 737.1 510.725413 
L 734.522727 503.27077 
L 731.945455 494.959091 
L 729.368182 485.450221 
L 728.079545 480.063707 
L 726.790909 474.082534 
L 725.502273 467.267414 
L 724.213636 459.15236 
L 722.925 448.535946 
L 720.255682 395.216357 
L 718.875 383.841627 
L 717.494318 375.146927 
L 716.113636 367.845012 
L 714.732955 361.436612 
L 713.352273 355.665347 
L 710.590909 345.477273 
L 707.829545 336.571903 
L 705.068182 328.584785 
L 702.306818 321.298906 
L 699.545455 314.572544 
L 696.784091 308.30704 
L 692.642045 299.620373 
L 688.5 291.637949 
L 684.357955 284.237998 
L 680.215909 277.331599 
L 676.073864 270.851436 
L 671.931818 264.745073 
L 667.789773 258.970706 
L 663.647727 253.494361 
L 658.125 246.608336 
L 652.602273 240.148418 
L 647.079545 234.070845 
L 641.556818 228.339765 
L 636.034091 222.925368 
L 630.511364 217.80256 
L 624.988636 212.949986 
L 619.465909 208.349299 
L 613.943182 203.98461 
L 607.039773 198.839671 
L 600.136364 194.018519 
L 593.232955 189.501079 
L 586.329545 185.270023 
L 579.426136 181.310297 
L 572.522727 177.608754 
L 565.619318 174.153864 
L 558.715909 170.935475 
L 551.8125 167.944628 
L 544.909091 165.173398 
L 538.005682 162.614767 
L 531.102273 160.262519 
L 524.198864 158.111152 
L 517.295455 156.155803 
L 509.011364 154.062133 
L 500.727273 152.238178 
L 492.443182 150.678515 
L 484.159091 149.378619 
L 475.875 148.3348 
L 467.590909 147.544146 
L 459.306818 147.004477 
L 451.022727 146.714324 
L 442.738636 146.672898 
L 434.454545 146.880088 
L 426.170455 147.336456 
L 417.886364 148.043242 
L 409.602273 149.002386 
L 401.318182 150.216552 
L 393.034091 151.689166 
L 384.75 153.424467 
L 376.465909 155.42757 
L 369.5625 157.305742 
L 362.659091 159.378152 
L 355.755682 161.649425 
L 348.852273 164.124799 
L 341.948864 166.810194 
L 335.045455 169.712297 
L 328.142045 172.838655 
L 321.238636 176.197797 
L 314.335227 179.799377 
L 307.431818 183.654349 
L 300.528409 187.775181 
L 293.625 192.176124 
L 286.721591 196.873547 
L 279.818182 201.886364 
L 272.914773 207.236575 
L 267.392045 211.776859 
L 261.869318 216.564846 
L 256.346591 221.618221 
L 250.823864 226.957529 
L 245.301136 232.606847 
L 239.778409 238.594699 
L 234.255682 244.955275 
L 228.732955 251.730147 
L 224.590909 257.113636 
L 220.448864 262.785213 
L 216.306818 268.7767 
L 212.164773 275.127032 
L 208.022727 281.884716 
L 203.880682 289.111512 
L 199.738636 296.888173 
L 195.596591 305.323852 
L 192.835227 311.387179 
L 190.073864 317.87272 
L 187.3125 324.864325 
L 184.551136 332.479443 
L 181.789773 340.891808 
L 179.028409 350.378726 
L 177.647727 355.665347 
L 176.267045 361.436612 
L 174.886364 367.845012 
L 173.505682 375.146927 
L 172.125 383.841627 
L 170.744318 395.216357 
L 169.363636 422.795455 
L 169.363636 422.795455 
L 170.836364 452.213159 
L 172.309091 464.346204 
L 173.781818 473.620551 
L 175.254545 481.40926 
L 176.727273 488.244886 
L 178.2 494.400902 
L 181.145455 505.268182 
L 184.090909 514.767243 
L 187.036364 523.286836 
L 189.981818 531.05844 
L 192.927273 538.233226 
L 195.872727 544.91643 
L 198.818182 551.184842 
L 203.236364 559.933174 
L 207.654545 568.021598 
L 212.072727 575.554974 
L 216.490909 582.611812 
L 220.909091 589.252731 
L 225.327273 595.525709 
L 229.745455 601.469505 
L 234.163636 607.115966 
L 240.054545 614.227341 
L 245.945455 620.90875 
L 251.836364 627.20236 
L 257.727273 633.142983 
L 263.618182 638.759749 
L 269.509091 644.077322 
L 275.4 649.116791 
L 281.290909 653.896351 
L 287.181818 658.431818 
L 293.072727 662.737034 
L 300.436364 667.813193 
L 307.8 672.569305 
L 315.163636 677.023334 
L 322.527273 681.1909 
L 329.890909 685.08566 
L 337.254545 688.7196 
L 344.618182 692.103278 
L 351.981818 695.24602 
L 359.345455 698.156074 
L 366.709091 700.840747 
L 374.072727 703.306511 
L 381.436364 705.559091 
L 388.8 707.603547 
L 396.163636 709.444331 
L 403.527273 711.085345 
L 410.890909 712.529983 
L 418.254545 713.781171 
L 425.618182 714.841395 
L 432.981818 715.712727 
L 440.345455 716.396851 
L 449.181818 716.972497 
L 458.018182 717.281994 
L 466.854545 717.326181 
L 475.690909 717.105178 
L 484.527273 716.618387 
L 491.890909 716.00876 
L 499.254545 715.212492 
L 506.618182 714.228051 
L 513.981818 713.053524 
L 521.345455 711.686591 
L 528.709091 710.124508 
L 536.072727 708.36407 
L 543.436364 706.401586 
L 550.8 704.232827 
L 558.163636 701.852985 
L 565.527273 699.256609 
L 572.890909 696.437535 
L 580.254545 693.388803 
L 587.618182 690.102554 
L 594.981818 686.569913 
L 602.345455 682.780835 
L 609.709091 678.72393 
L 617.072727 674.386244 
L 624.436364 669.75298 
L 631.8 664.807164 
L 637.690909 660.61241 
L 643.581818 656.193689 
L 649.472727 651.538021 
L 655.363636 646.630621 
L 661.254545 641.454542 
L 667.145455 635.990214 
L 673.036364 630.214857 
L 678.927273 624.101705 
L 684.818182 617.61896 
L 690.709091 610.728381 
L 695.127273 605.265116 
L 699.545455 599.522727 
L 703.963636 593.473045 
L 708.381818 587.082126 
L 712.8 580.308439 
L 717.218182 573.100242 
L 721.636364 565.39166 
L 726.054545 557.096555 
L 729 551.184842 
L 731.945455 544.91643 
L 734.890909 538.233226 
L 737.836364 531.05844 
L 740.781818 523.286836 
L 743.727273 514.767243 
L 746.672727 505.268182 
L 748.145455 500.039965 
L 749.618182 494.400902 
L 751.090909 488.244886 
L 752.563636 481.40926 
L 754.036364 473.620551 
L 755.509091 464.346204 
L 756.981818 452.213159 
L 758.454545 422.795455 
L 758.454545 422.795455" 
/>

</svg>
